<svg xmlns="http://www.w3.org/2000/svg" viewBox="0 0 30 30"><defs><style>.cls-1{fill:#00b433;}.cls-2{fill:#fff;}</style></defs><title>ico-hora</title><g id="Capa_2" data-name="Capa 2"><g id="Capa_1-2" data-name="Capa 1"><path class="cls-1" d="M30,15A15,15,0,1,1,15,0,15,15,0,0,1,30,15"/><path class="cls-2" d="M15,6.09A8.91,8.91,0,1,0,23.91,15,8.92,8.92,0,0,0,15,6.09m0,16.32A7.41,7.41,0,1,1,22.41,15,7.43,7.43,0,0,1,15,22.41"/><path class="cls-2" d="M19,14.72H15.53V9.47a.76.76,0,0,0-1.51,0v6a.76.76,0,0,0,.75.75H19a.76.76,0,1,0,0-1.51"/></g></g></svg>