<svg xmlns="http://www.w3.org/2000/svg" viewBox="0 0 30 30"><defs><style>.cls-1{fill:#00b433;}.cls-2{fill:none;stroke:#fff;stroke-miterlimit:10;stroke-width:0.8px;}</style></defs><title>ico-ubi</title><g id="Capa_2" data-name="Capa 2"><g id="Capa_1-2" data-name="Capa 1"><path class="cls-1" d="M30,15A15,15,0,1,1,15,0,15,15,0,0,1,30,15"/><path class="cls-1" d="M15,5.32a6.74,6.74,0,0,0-6.73,6.73C8.27,16.71,15,24.68,15,24.68s6.72-8.2,6.72-12.63A6.74,6.74,0,0,0,15,5.32M17,14A2.87,2.87,0,1,1,17,10,2.87,2.87,0,0,1,17,14"/><path class="cls-2" d="M15,5.32a6.74,6.74,0,0,0-6.73,6.73C8.27,16.71,15,24.68,15,24.68s6.72-8.2,6.72-12.63A6.74,6.74,0,0,0,15,5.32ZM17,14A2.87,2.87,0,1,1,17,10,2.87,2.87,0,0,1,17,14Z"/></g></g></svg>