<svg xmlns="http://www.w3.org/2000/svg" viewBox="0 0 30 30"><defs><style>.cls-1{fill:#00b433;}.cls-2{fill:none;stroke:#fff;stroke-miterlimit:10;stroke-width:0.8px;}</style></defs><title>ico-tel</title><g id="Capa_2" data-name="Capa 2"><g id="Capa_1-2" data-name="Capa 1"><path class="cls-1" d="M30,15A15,15,0,1,1,15,0,15,15,0,0,1,30,15"/><path class="cls-1" d="M22.36,18.64l-2.17-2.17a1.45,1.45,0,0,0-2.41.54,1.47,1.47,0,0,1-1.7.93,6.66,6.66,0,0,1-4-4A1.4,1.4,0,0,1,13,12.2a1.45,1.45,0,0,0,.54-2.41L11.34,7.62a1.56,1.56,0,0,0-2.1,0L7.77,9.09c-1.48,1.56.15,5.67,3.8,9.32s7.77,5.36,9.32,3.81l1.47-1.48a1.54,1.54,0,0,0,0-2.1"/><path class="cls-2" d="M22.36,18.64l-2.17-2.17a1.45,1.45,0,0,0-2.41.54,1.47,1.47,0,0,1-1.7.93,6.66,6.66,0,0,1-4-4A1.4,1.4,0,0,1,13,12.2a1.45,1.45,0,0,0,.54-2.41L11.34,7.62a1.56,1.56,0,0,0-2.1,0L7.77,9.09c-1.48,1.56.15,5.67,3.8,9.32s7.77,5.36,9.32,3.81l1.47-1.48A1.54,1.54,0,0,0,22.36,18.64Z"/></g></g></svg>