<svg id="Capa_1" data-name="Capa 1" xmlns="http://www.w3.org/2000/svg" viewBox="0 0 228 76"><defs><style>.cls-1,.cls-2{fill:#00b433;}.cls-2,.cls-4{fill-rule:evenodd;}.cls-3,.cls-4{fill:#fff;}</style></defs><title>iconos</title><path class="cls-1" d="M23.14,19.66H14.86a.49.49,0,0,0-.39.2.51.51,0,0,0-.08.43L15,22.14a.51.51,0,0,0,.47.34h7.16a.51.51,0,0,0,.47-.34l.56-1.85a.47.47,0,0,0-.08-.43.49.49,0,0,0-.39-.2m-.92,1.85H15.78l-.27-.87h7Z"/><path class="cls-1" d="M31.22,15.58c.07-.5-.2-1.15-1.23-1.31a5.47,5.47,0,0,0-2.81.45c-1.21-2.8-2.43-4.16-3.71-4.16H14.53c-1.28,0-2.5,1.36-3.71,4.16A5.47,5.47,0,0,0,8,14.27c-1,.16-1.3.81-1.23,1.31A1.76,1.76,0,0,0,8,16.86a2.76,2.76,0,0,0-1,1.78v3.6A2.2,2.2,0,0,0,8.69,24.6v1.79a1,1,0,0,0,1.05,1.05h2.65a1,1,0,0,0,1-1.05V24.72H24.56v1.67a1,1,0,0,0,1,1.05h2.65a1,1,0,0,0,1.05-1.05V24.6a2.2,2.2,0,0,0,1.63-2.36v-3.6a2.76,2.76,0,0,0-1-1.78,1.76,1.76,0,0,0,1.25-1.28M14.53,11.53h8.94c.53,0,1.64.58,3.12,4.29a7,7,0,0,0-1,.69,3.56,3.56,0,0,1-2,1H14.41a3.59,3.59,0,0,1-2-1,7,7,0,0,0-1-.69c1.48-3.71,2.59-4.29,3.12-4.29M7.74,15.44c0-.08.17-.17.42-.21a4.36,4.36,0,0,1,2.22.36A3.35,3.35,0,0,0,9.14,16c-.85.09-1.36-.36-1.4-.58m4.73,11a.07.07,0,0,1-.07.08H9.74a.07.07,0,0,1-.07-.08V24.72h2.8Zm15.79.08H25.61a.08.08,0,0,1-.08-.07V24.72h2.8v1.67a.07.07,0,0,1-.07.08M30,22.24c0,1.05-.47,1.51-1.52,1.51H9.57c-1.05,0-1.52-.46-1.52-1.51v-3.6a3.39,3.39,0,0,1,2.49-2.09h.13a4.21,4.21,0,0,1,1.17.72,4.35,4.35,0,0,0,2.57,1.18h9.18a4.35,4.35,0,0,0,2.57-1.18,4.1,4.1,0,0,1,1.18-.72h.12A3.39,3.39,0,0,1,30,18.64ZM28.86,16a3.35,3.35,0,0,0-1.24-.43,4.36,4.36,0,0,1,2.22-.36c.25,0,.43.13.42.21s-.55.67-1.4.58"/><path class="cls-1" d="M11.07,18.8a1.75,1.75,0,1,0,1.75,1.75,1.75,1.75,0,0,0-1.75-1.75m0,2.52a.78.78,0,1,1,.78-.77.78.78,0,0,1-.78.77"/><path class="cls-1" d="M26.93,18.8a1.75,1.75,0,1,0,1.75,1.75,1.75,1.75,0,0,0-1.75-1.75m0,2.52a.78.78,0,1,1,.78-.77.78.78,0,0,1-.78.77"/><path class="cls-1" d="M57,6.29A12.71,12.71,0,1,0,69.71,19,12.72,12.72,0,0,0,57,6.29M57,7.5A11.5,11.5,0,1,1,45.5,19,11.49,11.49,0,0,1,57,7.5m0,.9A10.6,10.6,0,1,0,67.59,19,10.61,10.61,0,0,0,57,8.4m0,1.22a9.38,9.38,0,0,1,8.6,5.62L61.13,16a5.12,5.12,0,0,0-8.25,0l-4.48-.71A9.38,9.38,0,0,1,57,9.62m0,5.45A3.93,3.93,0,1,1,53.07,19,3.92,3.92,0,0,1,57,15.07m-9,1.32,4.25.67A5.24,5.24,0,0,0,51.85,19a5.52,5.52,0,0,0,.09.92l-4.3-1.51a9.08,9.08,0,0,1,.34-2m18,0a8.81,8.81,0,0,1,.35,2l-4.3,1.5a5.38,5.38,0,0,0,.09-.9,5.23,5.23,0,0,0-.37-1.94Zm-9,.49A2.12,2.12,0,1,0,59.12,19,2.13,2.13,0,0,0,57,16.88m0,1.21a.91.91,0,1,1-.91.91.9.9,0,0,1,.91-.91m9.35,1.59A9.37,9.37,0,0,1,59,28.15l.49-4.69a5.18,5.18,0,0,0,2-2.1Zm-18.7,0,4.79,1.67a5.3,5.3,0,0,0,1.69,1.89l.52,4.82a9.37,9.37,0,0,1-7-8.38m7.78,4.19a5.11,5.11,0,0,0,1.57.25A4.78,4.78,0,0,0,58.26,24l-.46,4.35a7,7,0,0,1-.8,0,10.18,10.18,0,0,1-1.11-.06Z"/><path class="cls-1" d="M102.26,30.45H87.74a2,2,0,0,1-2-2v-19a2,2,0,0,1,2-2H99a.67.67,0,0,1,.48.2L104,12.27a.63.63,0,0,1,.2.47V28.48a2,2,0,0,1-2,2M87.74,8.9a.62.62,0,0,0-.62.62v19a.62.62,0,0,0,.62.62h14.52a.62.62,0,0,0,.62-.62V13L98.75,8.9Z"/><path class="cls-1" d="M103.56,13.42H99a.67.67,0,0,1-.68-.68V8.22a.69.69,0,0,1,.42-.62.66.66,0,0,1,.73.15L104,12.27a.66.66,0,0,1,.15.73.69.69,0,0,1-.62.42m-3.85-1.35h2.22L99.71,9.85Z"/><path class="cls-1" d="M99.87,26.09H90.13a.68.68,0,0,1-.68-.68.67.67,0,0,1,.68-.67h9.74a.67.67,0,0,1,.68.67.68.68,0,0,1-.68.68"/><path class="cls-1" d="M99.87,22H90.13a.67.67,0,1,1,0-1.34h9.74a.67.67,0,1,1,0,1.34"/><path class="cls-1" d="M99.87,18H90.13a.67.67,0,1,1,0-1.34h9.74a.67.67,0,1,1,0,1.34"/><path class="cls-2" d="M121.42,11.05a1.61,1.61,0,0,1,2.21-.59l11.86,6.84a1.94,1.94,0,0,1,.29.21V13.3h6.85l3.6,4.32v7.57H144a3.24,3.24,0,0,1-6.32,0h-7.37a3.24,3.24,0,0,1-6.32,0h-3V19.42h11.67l-10.23-5.91V15a1.58,1.58,0,0,1,.35,1,1.63,1.63,0,0,1-3,.83l1-.42a.57.57,0,0,0,.36.13.54.54,0,0,0,.19-1V12.57a1.61,1.61,0,0,1,0-1.52m19.4,11.25A2.17,2.17,0,1,0,143,24.46a2.16,2.16,0,0,0-2.16-2.16m-13.69,0a2.17,2.17,0,1,0,2.16,2.16,2.16,2.16,0,0,0-2.16-2.16m8.64-1.8H122.09v3.61h1.82a3.24,3.24,0,0,1,6.44,0h5.42Zm3.61-6.12h-2.53v9.73h.74a3.24,3.24,0,0,1,6.45,0h1.1V19.06h-5.76Zm-17-2.79a.54.54,0,0,0,.06.63h0v0l.06.05,0,0,12.29,7.09h.93v-.71l-12.68-7.32a.53.53,0,0,0-.73.2m19.69,2.79h-1.59V18h4.48Z"/><path class="cls-1" d="M170.11,12.45h-.05a6.39,6.39,0,0,0-3.95,1.74l-2.17,2.24-4.5.85-.82.15h0a2.61,2.61,0,0,0-.27.06l-.22.07-.17.08-.26.14-.18.14-.07.05-.06.06-.08.06-.09.1a1,1,0,0,0-.14.15.46.46,0,0,1-.07.07l0,0,0,0a.36.36,0,0,0-.07.1,1.13,1.13,0,0,0-.1.13l-.11.2a2.21,2.21,0,0,0-.18.34l0,0c-.05.12-.09.24-.13.36a.65.65,0,0,0,0,.13,1.55,1.55,0,0,0-.05.23l0,.09v.09c0,.06,0,.11,0,.17V22a.9.9,0,0,0,.91.9h2.13a3.1,3.1,0,0,0,6.15,0h12a3.1,3.1,0,0,0,6.15,0h1.4a.91.91,0,0,0,.92-.9V17.78a1,1,0,0,0,0-.18s0,0,0-.06v0a1.08,1.08,0,0,0-1.05-.82H183l-2.41-2.5a5.19,5.19,0,0,0-4.43-1.75h-6.08Zm0,.58h6a4.53,4.53,0,0,1,4,1.57l2.49,2.6a.31.31,0,0,0,.22.09h1.82a.52.52,0,0,1,.25.07.8.8,0,0,0-.78.79v1.7a.79.79,0,0,0,.79.79h.26V22a.32.32,0,0,1-.34.32h-1.39a3.1,3.1,0,0,0-6.17,0h-12a3.1,3.1,0,0,0-6.17,0h-2.12a.32.32,0,0,1-.33-.32v-1.5a4.32,4.32,0,0,0,2.18-.63,2,2,0,0,0,1-1.62,1.51,1.51,0,0,0-.1-.42l4.31-.8a.31.31,0,0,0,.15-.08l2.23-2.31a6.13,6.13,0,0,1,3.6-1.57m.12.56a5.69,5.69,0,0,0-3.52,2,.31.31,0,0,0,.28.5l.13,0h0a1.74,1.74,0,0,1,1,.07.43.43,0,0,1,.31.4h0a.3.3,0,0,0,.28.33l5.28,0a.31.31,0,0,0,.3-.3V13.89a.32.32,0,0,0-.3-.3h-3.75Zm5.2,0a.32.32,0,0,0-.23.3v2.7a.32.32,0,0,0,.29.29l5.1.05a.32.32,0,0,0,.22-.5l-1.58-1.77a3.17,3.17,0,0,0-2.63-1.07h-1.17Zm-5.19.59h3.45v2.1l-4.77,0a1.09,1.09,0,0,0-.56-.7,1.92,1.92,0,0,0-.56-.13,4.09,4.09,0,0,1,2.44-1.25m5.55,0h.81a2.51,2.51,0,0,1,2.2.87L180,16.33l-4.15,0Zm-4.44,3.65a.28.28,0,0,0-.24.33.3.3,0,0,0,.33.25h1.75v.27a.3.3,0,0,0,.59,0v-.56a.3.3,0,0,0-.29-.29h-2.14m-12.1.09a1,1,0,0,1,.08.29,1.45,1.45,0,0,1-.75,1.13,3.74,3.74,0,0,1-1.72.49,3.21,3.21,0,0,1,.36-.75,1.82,1.82,0,0,1,.15-.23l0,0,0,0,.24-.25a2.32,2.32,0,0,1,.25-.21l.06,0,.16-.1.14-.06a.8.8,0,0,1,.2-.07l.18,0h0Zm25.71,0h.26v2.12H185a.2.2,0,0,1-.2-.21v-1.7a.2.2,0,0,1,.2-.21m-22.7,2.11a2.46,2.46,0,1,1-2.52,2.46,2.48,2.48,0,0,1,2.52-2.46m18.15,0a2.46,2.46,0,1,1-2.51,2.46,2.48,2.48,0,0,1,2.51-2.46m-18.15.53a1.93,1.93,0,1,0,2,1.93,2,2,0,0,0-2-1.93m18.15,0a1.93,1.93,0,1,0,2,1.93,2,2,0,0,0-2-1.93m-18.15.58a1.35,1.35,0,1,1-1.38,1.35,1.35,1.35,0,0,1,1.38-1.35m18.15,0a1.35,1.35,0,1,1-1.38,1.35,1.36,1.36,0,0,1,1.38-1.35"/><path class="cls-1" d="M210.38,24.55v-.07a2.2,2.2,0,0,0-2.19-2.19h-5A2.2,2.2,0,0,0,201,24.48v.07a2.21,2.21,0,0,0-2,2.19v.51a.49.49,0,0,0,.49.5h12.37a.5.5,0,0,0,.5-.5v-.51a2.21,2.21,0,0,0-2-2.19m-7.17-1.25h5a1.2,1.2,0,0,1,1.2,1.2v.05H202V24.5a1.2,1.2,0,0,1,1.2-1.2m7,2.24a1.2,1.2,0,0,1,1.2,1.2l-11.38,0v0a1.19,1.19,0,0,1,1.2-1.2"/><path class="cls-1" d="M217.32,19.61l-4.6-4.1A10.76,10.76,0,0,0,214,13.42a1.18,1.18,0,0,0,.41.07A1.59,1.59,0,0,0,216,11.92a1.59,1.59,0,0,0-.48-1.12l-3-3a1.57,1.57,0,0,0-2.23,0,1.54,1.54,0,0,0-.48,1.12,1,1,0,0,0,.07.4,11.85,11.85,0,0,0-3.31,2.36A11.57,11.57,0,0,0,204.24,15a1.52,1.52,0,0,0-1.53.41,1.57,1.57,0,0,0,0,2.23l3,3a1.59,1.59,0,0,0,2.7-1.12,1.25,1.25,0,0,0-.06-.4,10.41,10.41,0,0,0,2.08-1.29l4.08,4.57a2.05,2.05,0,0,0,1.42.67H216a2,2,0,0,0,1.4-.58A2,2,0,0,0,218,21a2,2,0,0,0-.64-1.42M211,8.51h0a.58.58,0,0,1,.82,0l3,3a.56.56,0,0,1,0,.82.59.59,0,0,1-.83,0l-3-3a.58.58,0,0,1-.17-.41.61.61,0,0,1,.17-.43m-3.78,11.42a.57.57,0,0,1-.83,0l-3-3a.59.59,0,1,1,.82-.84l3,3a.56.56,0,0,1,0,.84m.56-1.67-2.68-2.71a10.87,10.87,0,0,1,2.21-3.16,11.28,11.28,0,0,1,3.13-2.23l2.71,2.71A10.09,10.09,0,0,1,210.92,16a9.94,9.94,0,0,1-3.14,2.26m8.91,3.52a.94.94,0,0,1-.73.28,1,1,0,0,1-.71-.33l-4.08-4.57.48-.45c.15-.15.3-.3.45-.47l4.55,4.1a.93.93,0,0,1,.32.71.91.91,0,0,1-.28.73"/><path class="cls-3" d="M23.14,57.66H14.86a.49.49,0,0,0-.39.2.51.51,0,0,0-.08.43L15,60.14a.51.51,0,0,0,.47.34h7.16a.51.51,0,0,0,.47-.34l.56-1.85a.47.47,0,0,0-.08-.43.49.49,0,0,0-.39-.2m-.92,1.85H15.78l-.27-.87h7Z"/><path class="cls-3" d="M31.22,53.58c.07-.5-.2-1.15-1.23-1.31a5.47,5.47,0,0,0-2.81.45c-1.21-2.8-2.43-4.16-3.71-4.16H14.53c-1.28,0-2.5,1.36-3.71,4.16A5.47,5.47,0,0,0,8,52.27c-1,.16-1.3.81-1.23,1.31A1.76,1.76,0,0,0,8,54.86a2.76,2.76,0,0,0-1,1.78v3.6A2.2,2.2,0,0,0,8.69,62.6v1.79a1,1,0,0,0,1.05,1h2.65a1,1,0,0,0,1-1V62.72H24.56v1.67a1,1,0,0,0,1,1h2.65a1,1,0,0,0,1.05-1V62.6a2.2,2.2,0,0,0,1.63-2.36v-3.6a2.76,2.76,0,0,0-1-1.78,1.76,1.76,0,0,0,1.25-1.28m-16.69-4h8.94c.53,0,1.64.58,3.12,4.29a7,7,0,0,0-1,.69,3.56,3.56,0,0,1-2,1H14.41a3.59,3.59,0,0,1-2-1,7,7,0,0,0-1-.69c1.48-3.71,2.59-4.29,3.12-4.29M7.74,53.44c0-.08.17-.17.42-.21a4.36,4.36,0,0,1,2.22.36A3.35,3.35,0,0,0,9.14,54c-.85.09-1.36-.36-1.4-.58m4.73,11a.07.07,0,0,1-.07.08H9.74a.07.07,0,0,1-.07-.08V62.72h2.8Zm15.79.08H25.61a.08.08,0,0,1-.08-.07V62.72h2.8v1.67a.07.07,0,0,1-.07.08M30,60.24c0,1-.47,1.51-1.52,1.51H9.57c-1.05,0-1.52-.46-1.52-1.51v-3.6a3.39,3.39,0,0,1,2.49-2.09h.13a4.21,4.21,0,0,1,1.17.72,4.35,4.35,0,0,0,2.57,1.18h9.18a4.35,4.35,0,0,0,2.57-1.18,4.1,4.1,0,0,1,1.18-.72h.12A3.39,3.39,0,0,1,30,56.64ZM28.86,54a3.35,3.35,0,0,0-1.24-.43,4.36,4.36,0,0,1,2.22-.36c.25,0,.43.13.42.21s-.55.67-1.4.58"/><path class="cls-3" d="M11.07,56.8a1.75,1.75,0,1,0,1.75,1.75,1.75,1.75,0,0,0-1.75-1.75m0,2.52a.78.78,0,1,1,.78-.77.78.78,0,0,1-.78.77"/><path class="cls-3" d="M26.93,56.8a1.75,1.75,0,1,0,1.75,1.75,1.75,1.75,0,0,0-1.75-1.75m0,2.52a.78.78,0,1,1,.78-.77.78.78,0,0,1-.78.77"/><path class="cls-3" d="M57,44.29A12.71,12.71,0,1,0,69.71,57,12.72,12.72,0,0,0,57,44.29m0,1.21A11.5,11.5,0,1,1,45.5,57,11.49,11.49,0,0,1,57,45.5m0,.9A10.6,10.6,0,1,0,67.59,57,10.61,10.61,0,0,0,57,46.4m0,1.22a9.38,9.38,0,0,1,8.6,5.62L61.13,54a5.12,5.12,0,0,0-8.25,0l-4.48-.71A9.38,9.38,0,0,1,57,47.62m0,5.45A3.93,3.93,0,1,1,53.07,57,3.92,3.92,0,0,1,57,53.07m-9,1.32,4.25.67A5.24,5.24,0,0,0,51.85,57a5.52,5.52,0,0,0,.09.92l-4.3-1.51a9.08,9.08,0,0,1,.34-2m18,0a8.81,8.81,0,0,1,.35,2l-4.3,1.5a5.38,5.38,0,0,0,.09-.9,5.23,5.23,0,0,0-.37-1.94Zm-9,.49A2.12,2.12,0,1,0,59.12,57,2.13,2.13,0,0,0,57,54.88m0,1.21a.91.91,0,1,1-.91.91.9.9,0,0,1,.91-.91m9.35,1.59A9.37,9.37,0,0,1,59,66.15l.49-4.69a5.18,5.18,0,0,0,2-2.1Zm-18.7,0,4.79,1.67a5.3,5.3,0,0,0,1.69,1.89l.52,4.82a9.37,9.37,0,0,1-7-8.38m7.78,4.19a5.11,5.11,0,0,0,1.57.25A4.78,4.78,0,0,0,58.26,62l-.46,4.35a7,7,0,0,1-.8,0,10.18,10.18,0,0,1-1.11-.06Z"/><path class="cls-3" d="M102.26,68.45H87.74a2,2,0,0,1-2-2v-19a2,2,0,0,1,2-2H99a.67.67,0,0,1,.48.2L104,50.27a.63.63,0,0,1,.2.47V66.48a2,2,0,0,1-2,2M87.74,46.9a.62.62,0,0,0-.62.62v19a.62.62,0,0,0,.62.62h14.52a.62.62,0,0,0,.62-.62V51L98.75,46.9Z"/><path class="cls-3" d="M103.56,51.42H99a.67.67,0,0,1-.68-.68V46.22a.69.69,0,0,1,.42-.62.66.66,0,0,1,.73.15L104,50.27a.66.66,0,0,1,.15.73.69.69,0,0,1-.62.42m-3.85-1.35h2.22l-2.22-2.22Z"/><path class="cls-3" d="M99.87,64.09H90.13a.68.68,0,0,1-.68-.68.67.67,0,0,1,.68-.67h9.74a.67.67,0,0,1,.68.67.68.68,0,0,1-.68.68"/><path class="cls-3" d="M99.87,60H90.13a.67.67,0,1,1,0-1.34h9.74a.67.67,0,1,1,0,1.34"/><path class="cls-3" d="M99.87,56H90.13a.67.67,0,1,1,0-1.34h9.74a.67.67,0,1,1,0,1.34"/><path class="cls-4" d="M121.42,49.05a1.61,1.61,0,0,1,2.21-.59l11.86,6.84a1.94,1.94,0,0,1,.29.21V51.3h6.85l3.6,4.32v7.57H144a3.24,3.24,0,0,1-6.32,0h-7.37a3.24,3.24,0,0,1-6.32,0h-3V57.42h11.67l-10.23-5.91V53a1.58,1.58,0,0,1,.35,1,1.63,1.63,0,0,1-3,.83l1-.42a.57.57,0,0,0,.36.13.54.54,0,0,0,.19-1V50.57a1.61,1.61,0,0,1,0-1.52m19.4,11.25A2.17,2.17,0,1,0,143,62.46a2.16,2.16,0,0,0-2.16-2.16m-13.69,0a2.17,2.17,0,1,0,2.16,2.16,2.16,2.16,0,0,0-2.16-2.16m8.64-1.8H122.09v3.61h1.82a3.24,3.24,0,0,1,6.44,0h5.42Zm3.61-6.12h-2.53v9.73h.74a3.24,3.24,0,0,1,6.45,0h1.1v-5h-5.76Zm-17-2.79a.54.54,0,0,0,.06.63h0v0l.06,0,0,0,12.29,7.09h.93v-.71l-12.68-7.32a.53.53,0,0,0-.73.2m19.69,2.79h-1.59V56h4.48Z"/><path class="cls-3" d="M170.11,50.45h-.05a6.39,6.39,0,0,0-3.95,1.74l-2.17,2.24-4.5.85-.82.15h0l-.27.06-.22.07-.17.08-.26.14-.18.14-.07,0-.06.06-.08.06-.09.1a1,1,0,0,0-.14.15l-.07.07,0,0,0,0a.36.36,0,0,0-.07.1,1.13,1.13,0,0,0-.1.13l-.11.2a2.21,2.21,0,0,0-.18.34l0,0c-.05.12-.09.24-.13.36a.65.65,0,0,0,0,.13,1.55,1.55,0,0,0-.05.23l0,.09v.09c0,.06,0,.11,0,.17V60a.9.9,0,0,0,.91.9h2.13a3.1,3.1,0,0,0,6.15,0h12a3.1,3.1,0,0,0,6.15,0h1.4a.91.91,0,0,0,.92-.9V55.78a1,1,0,0,0,0-.18s0,0,0-.06v0a1.08,1.08,0,0,0-1.05-.82H183l-2.41-2.5a5.19,5.19,0,0,0-4.43-1.75h-6.08Zm0,.58h6a4.53,4.53,0,0,1,4,1.57l2.49,2.6a.31.31,0,0,0,.22.09h1.82a.52.52,0,0,1,.25.07.8.8,0,0,0-.78.79v1.7a.79.79,0,0,0,.79.79h.26V60a.32.32,0,0,1-.34.32h-1.39a3.1,3.1,0,0,0-6.17,0h-12a3.1,3.1,0,0,0-6.17,0h-2.12a.32.32,0,0,1-.33-.32v-1.5a4.32,4.32,0,0,0,2.18-.63,2,2,0,0,0,1-1.62,1.51,1.51,0,0,0-.1-.42l4.31-.8a.31.31,0,0,0,.15-.08l2.23-2.31a6.13,6.13,0,0,1,3.6-1.57m.12.56a5.69,5.69,0,0,0-3.52,2,.31.31,0,0,0,.28.5l.13,0h0a1.74,1.74,0,0,1,1,.07.43.43,0,0,1,.31.4h0a.3.3,0,0,0,.28.33l5.28,0a.31.31,0,0,0,.3-.3V51.89a.32.32,0,0,0-.3-.3h-3.75Zm5.2,0a.32.32,0,0,0-.23.3v2.7a.32.32,0,0,0,.29.29l5.1,0a.32.32,0,0,0,.22-.5l-1.58-1.77a3.17,3.17,0,0,0-2.63-1.07h-1.17Zm-5.19.59h3.45v2.1l-4.77,0a1.09,1.09,0,0,0-.56-.7,1.92,1.92,0,0,0-.56-.13,4.09,4.09,0,0,1,2.44-1.25m5.55,0h.81a2.51,2.51,0,0,1,2.2.87L180,54.33l-4.15,0Zm-4.44,3.65a.28.28,0,0,0-.24.33.3.3,0,0,0,.33.25h1.75v.27a.3.3,0,0,0,.59,0v-.56a.3.3,0,0,0-.29-.29h-2.14m-12.1.09a1,1,0,0,1,.08.29,1.45,1.45,0,0,1-.75,1.13,3.74,3.74,0,0,1-1.72.49,3.21,3.21,0,0,1,.36-.75,1.82,1.82,0,0,1,.15-.23l0,0,0,0,.24-.25a2.32,2.32,0,0,1,.25-.21l.06,0,.16-.1.14-.06a.8.8,0,0,1,.2-.07l.18,0h0Zm25.71,0h.26v2.12H185a.2.2,0,0,1-.2-.21v-1.7a.2.2,0,0,1,.2-.21m-22.7,2.11a2.46,2.46,0,1,1-2.52,2.46,2.48,2.48,0,0,1,2.52-2.46m18.15,0a2.46,2.46,0,1,1-2.51,2.46,2.48,2.48,0,0,1,2.51-2.46m-18.15.53a1.93,1.93,0,1,0,2,1.93,2,2,0,0,0-2-1.93m18.15,0a1.93,1.93,0,1,0,2,1.93,2,2,0,0,0-2-1.93m-18.15.58a1.35,1.35,0,1,1-1.38,1.35,1.35,1.35,0,0,1,1.38-1.35m18.15,0a1.35,1.35,0,1,1-1.38,1.35,1.36,1.36,0,0,1,1.38-1.35"/><path class="cls-3" d="M210.38,62.55v-.07a2.2,2.2,0,0,0-2.19-2.19h-5A2.2,2.2,0,0,0,201,62.48v.07a2.21,2.21,0,0,0-2,2.19v.51a.49.49,0,0,0,.49.5h12.37a.5.5,0,0,0,.5-.5v-.51a2.21,2.21,0,0,0-2-2.19m-7.17-1.25h5a1.2,1.2,0,0,1,1.2,1.2v0H202v0a1.2,1.2,0,0,1,1.2-1.2m7,2.24a1.2,1.2,0,0,1,1.2,1.2l-11.38,0v0a1.19,1.19,0,0,1,1.2-1.2"/><path class="cls-3" d="M217.32,57.61l-4.6-4.1A10.76,10.76,0,0,0,214,51.42a1.18,1.18,0,0,0,.41.07A1.59,1.59,0,0,0,216,49.92a1.59,1.59,0,0,0-.48-1.12l-3-3a1.57,1.57,0,0,0-2.23,0,1.54,1.54,0,0,0-.48,1.12,1,1,0,0,0,.07.4,11.85,11.85,0,0,0-3.31,2.36A11.57,11.57,0,0,0,204.24,53a1.52,1.52,0,0,0-1.53.41,1.57,1.57,0,0,0,0,2.23l3,3a1.59,1.59,0,0,0,2.7-1.12,1.25,1.25,0,0,0-.06-.4,10.41,10.41,0,0,0,2.08-1.29l4.08,4.57a2.05,2.05,0,0,0,1.42.67H216a2,2,0,0,0,1.4-.58A2,2,0,0,0,218,59a2,2,0,0,0-.64-1.42M211,46.51h0a.58.58,0,0,1,.82,0l3,3a.56.56,0,0,1,0,.82.59.59,0,0,1-.83,0l-3-3a.58.58,0,0,1-.17-.41.61.61,0,0,1,.17-.43m-3.78,11.42a.57.57,0,0,1-.83,0l-3-3a.59.59,0,1,1,.82-.84l3,3a.56.56,0,0,1,0,.84m.56-1.67-2.68-2.71a10.87,10.87,0,0,1,2.21-3.16,11.28,11.28,0,0,1,3.13-2.23l2.71,2.71A10.09,10.09,0,0,1,210.92,54a9.94,9.94,0,0,1-3.14,2.26m8.91,3.52a.94.94,0,0,1-.73.28,1,1,0,0,1-.71-.33l-4.08-4.57.48-.45c.15-.15.3-.3.45-.47l4.55,4.1a.93.93,0,0,1,.32.71.91.91,0,0,1-.28.73"/></svg>