<?xml version="1.0" encoding="utf-8"?>
<!-- Generator: Adobe Illustrator 24.0.1, SVG Export Plug-In . SVG Version: 6.00 Build 0)  -->
<svg version="1.1" id="Layer_1" xmlns="http://www.w3.org/2000/svg" xmlns:xlink="http://www.w3.org/1999/xlink" x="0px" y="0px"
	 viewBox="0 0 1719.5 274.3" style="enable-background:new 0 0 1719.5 274.3;" xml:space="preserve">
<style type="text/css">
	.st0{fill-rule:evenodd;clip-rule:evenodd;fill:#2C4C2F;}
	.st1{fill-rule:evenodd;clip-rule:evenodd;fill:#7AB150;}
	.st2{fill-rule:evenodd;clip-rule:evenodd;fill:#C2D245;}
	.st3{fill-rule:evenodd;clip-rule:evenodd;fill:url(#SVGID_1_);}
	.st4{fill-rule:evenodd;clip-rule:evenodd;fill:url(#SVGID_2_);}
	.st5{fill-rule:evenodd;clip-rule:evenodd;fill:url(#SVGID_3_);}
	.st6{fill-rule:evenodd;clip-rule:evenodd;fill:url(#SVGID_4_);}
</style>
<g>
	<g>
		<g>
			<g>
				<path class="st0" d="M565.6,69.4c10.2,0,18.5,2.8,24.6,8.3c6.1,5.8,9,13,9,22.5c0,9.8-2.8,17.3-9.3,22.8c-6.7,5.5-15.6,8-27.7,8
					h-19.5v-17h19.8c11.7,0,17.5-4.8,17.5-13.4c0-9.5-6.2-14.1-18.5-14.1h-18.8v-17H565.6L565.6,69.4z M542.8,131v-17h-37.5V86.4
					h37.5v-17h-55.8v97.3h18.3V131H542.8z"/>
				<path class="st0" d="M565.6,69.4c10.2,0,18.5,2.8,24.6,8.3c6.1,5.8,9,13,9,22.5c0,9.8-2.8,17.3-9.3,22.8c-6.7,5.5-15.6,8-27.7,8
					h-19.5v-17h19.8l0,0c11.7,0,17.5-4.8,17.5-13.4c0-9.5-6.2-14.1-18.5-14.1h-18.8v-17H565.6z M542.8,131h-37.5v35.8h-18.3V69.4
					h55.8v17h-37.5V114h37.5V131z"/>
				<path class="st0" d="M734,166.8h-21.8L686.6,131h-11.3v-17h19.9c11.7,0,17.5-4.8,17.5-13.4c0-9.5-6.3-14.1-18.6-14.1h-18.8v-17
					h22.8c10.6,0,18.6,2.8,24.6,8.3c6.3,5.8,9.5,13,9.5,22.5c0,16.3-8.3,26.1-24.3,29.8L734,166.8L734,166.8z M675.3,131v-17h-37
					V86.4h37v-17h-56.1v97.3h19.1V131H675.3z"/>
				<path class="st0" d="M734,166.8h-21.8L686.6,131h-11.1v-17h19.8l0,0c11.7,0,17.5-4.8,17.5-13.4c0-9.5-6.3-14.1-18.6-14.1h-18.7
					v-17h22.6c10.6,0,18.6,2.8,24.6,8.3c6.3,5.8,9.5,13,9.5,22.5c0,16.3-8.3,26.1-24.3,29.8L734,166.8z M675.4,131h-37.1v35.8h-19.1
					V69.4h56.2v17h-37.1V114h37.1V131z"/>
				<polygon class="st0" points="866.2,166.8 761.2,166.8 761.2,69.4 862.7,69.4 862.7,86.4 779.9,86.4 779.9,107.8 837.5,107.8 
					837.5,124.8 779.9,124.8 779.9,149.8 866.2,149.8 				"/>
				<polygon class="st0" points="939.7,150.1 983.6,69.4 1004.6,69.4 950.7,166.8 928.9,166.8 875,69.4 896,69.4 				"/>
				<rect x="1021.9" y="69.4" class="st0" width="19.1" height="97.3"/>
				<path class="st0" d="M1162.7,93.2c-12.6-6.5-26.5-9.6-41.3-9.6c-21.6,0-32.6,4-32.6,11.5c0,4.8,4,7.6,12.3,9.2
					c11,0.6,22.1,1.8,33.3,2.8c16,1.5,27.3,4.5,34.1,8.8c7.1,4.3,11.2,11.2,11.2,20.5c0,10.5-4.7,18.5-14,24.3
					c-9.5,5.8-22.8,8.8-40.6,8.8c-25.3,0-45.3-6-60.3-17.5l10.1-13.5c13.5,9.5,30.1,14.1,49.8,14.1c10.8,0,19.5-1.5,25.3-4.3
					c6.1-2.5,9.2-6.5,9.2-11.3c0-4.9-3.7-8.5-11-10.7c-4.3-1.1-10.5-1.8-19.1-2.2c-13.9-0.8-22.1-1.2-25-1.5c-12.3-1-21.1-4-27-8
					c-5.7-4-8.7-9.8-8.7-17.5c0-9.3,4.8-16.6,13.8-22.1c9.5-5.3,22.1-8.3,38.8-8.3c21.8,0,39.8,4.7,53.3,14.1L1162.7,93.2z"/>
				<path class="st0" d="M1326.1,118c0,16-6.8,28.8-20.6,38.9c-11.7,8.3-26.1,12.8-43.4,12.8h-0.5v-17.2c13.5,0,24.3-3.1,32.3-9.8
					c8-6.1,12.3-14.6,12.3-24.8l0,0c0-10.2-4.3-18.6-12.7-25.1c-8-6.5-18.8-9.8-32-9.8V65.7v17.3l0,0l0,0V65.7h0.5
					c16.6,0,31.1,4.7,43.4,13.3C1319.3,89.2,1326.1,102,1326.1,118L1326.1,118z M1261.5,169.8L1261.5,169.8v-17.2V169.8z
					 M1261.5,65.7v17.3c-13,0-23.8,3.4-32.1,9.8c-8.3,7-12.3,15-12.3,25.1s4,18.7,12.3,24.8c8,6.7,18.8,9.8,32.1,9.8v17.2
					c-17.3,0-31.8-4.5-43.4-12.8c-13.8-10.2-20.6-23-20.6-38.9c0-16,6.8-29.1,20.6-38.9C1230.1,70.4,1244.6,66.1,1261.5,65.7z"/>
				<path class="st0" d="M1326.1,118c0,16-6.8,28.8-20.6,38.9c-11.7,8.3-26.1,12.8-43.4,12.8h-0.5v-17.2c13.5,0,24.3-3.1,32.3-9.8
					c8-6.1,12.3-14.6,12.3-24.8l0,0c0-10.2-4.3-18.6-12.7-25.1c-8-6.5-18.8-9.8-32-9.8V65.7h0.5c16.6,0,31.1,4.7,43.4,13.3
					C1319.3,89.2,1326.1,102,1326.1,118L1326.1,118z M1261.5,169.8c-17.5-0.2-31.8-4.5-43.4-12.8c-13.8-10.2-20.6-23-20.6-38.9
					c0-16,6.8-29.1,20.6-38.9c12-8.7,26.6-13.3,43.4-13.3v17.3l0,0c-13,0-23.8,3.4-32.1,9.8c-8.3,7-12.3,15-12.3,25.1
					s4,18.7,12.3,24.8c8,6.7,18.8,9.8,32.1,9.8l0,0V169.8z"/>
				<path class="st0" d="M1468.4,166.8h-21.9L1421,131h-11.1v-17h19.5c11.6,0,17.5-4.8,17.5-13.4c0-9.5-6.2-14.1-18.5-14.1h-18.5
					v-17h22.5c10.5,0,18.8,2.8,25,8.3c6.2,5.8,9,13,9,22.5c0,16.3-8,26.1-24.1,29.8L1468.4,166.8L1468.4,166.8z M1409.8,131v-17
					h-37.3V86.4h37.3v-17h-56.1v97.3h18.8V131H1409.8z"/>
				<path class="st0" d="M1468.4,166.8h-21.9L1421,131h-11.3v-17h19.6l0,0c11.6,0,17.5-4.8,17.5-13.4c0-9.5-6.2-14.1-18.5-14.1
					h-18.6v-17h22.6c10.5,0,18.8,2.8,25,8.3c6.2,5.8,9,13,9,22.5c0,16.3-8,26.1-24.1,29.8L1468.4,166.8z M1409.7,131h-37.2v35.8
					h-18.8V69.4h55.9v17h-37.2V114h37.2V131z"/>
				<polygon class="st0" points="1589.9,166.8 1610.9,166.8 1557.6,69.4 1534,69.4 1480.7,166.8 1565.6,166.8 1555.8,149.8 
					1511.2,149.8 1546,85.2 				"/>
				<path class="st0" d="M508.6,220.5l-2.1,3.1c-1.2-0.8-2.4-1.4-3.7-1.7c-1.2-0.5-2.4-0.6-3.6-0.6c-2,0-3.7,0.5-5.1,1.6
					c-1.4,1.2-2,2.6-2,4.3c0,0.8,0.2,1.5,0.3,2.1c0.3,0.6,0.6,1.2,1.2,1.7c0.6,0.9,2.4,1.9,5.5,3.2c1.2,0.6,2.2,1.1,3,1.4
					c2.1,0.9,3.8,2.3,4.9,4c1.2,1.5,1.7,3.4,1.7,5.5c0,3-1.1,5.4-3.4,7.6c-2.1,2-5,2.9-8.4,2.9c-1.6,0-3.3-0.1-5-0.7
					c-1.5-0.5-3.2-1.2-4.9-2.3l1.7-3.4c1.7,1,3.1,1.7,4.3,2.2c1.2,0.3,2.5,0.6,3.3,0.6c2.3,0,4-0.6,5.5-2c1.4-1.4,2.1-3.1,2.1-5
					c0-0.8-0.2-1.5-0.6-2.3c-0.3-0.6-0.8-1.4-1.5-1.8c-1.1-0.9-3.4-2.2-6.6-3.6c-1.2-0.7-2-0.9-2.8-1.2c-1.5-0.8-2.7-2-3.7-3.4
					c-0.7-1.4-1.2-2.9-1.2-4.6c0-3.2,0.9-5.6,2.9-7.5c2-1.8,4.8-2.7,8.3-2.7c1.7,0,3.4,0.3,4.9,0.7
					C505.4,218.8,506.9,219.6,508.6,220.5z"/>
				<polygon class="st0" points="541,218.4 560.1,218.4 560.1,222.2 545.4,222.2 545.2,234.1 559.4,234.1 559.4,237.9 545.1,237.9 
					544.9,251 560.1,251 560,254.7 540.3,254.7 				"/>
				<path class="st0" d="M620.9,220.3l-1.7,3.4c-1.7-0.9-3.2-1.4-4.8-1.8c-1.5-0.5-2.9-0.6-4.3-0.6c-4.4,0-8.1,1.6-11,4.3
					c-2.7,2.9-4.3,6.7-4.3,11.2c0,4.4,1.4,8.1,4.1,10.8c2.8,2.9,6.1,4.3,10.4,4.3c1,0,2.1-0.1,3.5-0.3c1.2-0.1,2.6-0.6,4.1-1.1
					l0.3-15.4h4.3l-0.3,17.9c-2,0.9-3.8,1.5-5.8,2c-2,0.5-3.9,0.6-6.1,0.6c-2.8,0-5.2-0.3-7.2-0.9c-2.2-0.7-4-1.7-5.6-3.1
					c-2.2-1.8-3.8-4-4.9-6.5c-1.2-2.5-1.7-5.2-1.7-8.1c0-3.1,0.6-6,2-8.7c1.4-2.6,3.4-4.9,6-6.9c1.5-1.2,3.4-2.1,5.3-2.7
					c1.8-0.6,4-0.9,6.2-0.9c2,0,4,0.3,5.8,0.7C617.2,218.7,619.1,219.4,620.9,220.3z"/>
				<path class="st0" d="M655.2,218.4h4.9l-0.5,23.7v0.2c0,2.7,0.9,5.1,2.8,6.7c1.8,1.7,4.4,2.6,7.5,2.6c3.5,0,6-1.1,7.6-3
					c1.7-2.1,2.4-5.2,2.6-9.7l0.3-20.6h4.7l-0.5,21.7c-0.2,5-1.4,8.9-3.8,11.3c-2.6,2.6-6.1,4-10.8,4c-5,0-8.9-1.3-11.5-3.8
					c-2.4-2.4-3.8-6.1-3.8-11v-0.6L655.2,218.4z"/>
				<path class="st0" d="M729.1,218.4c2,0,3.5,0.3,4.7,0.6c1.4,0.3,2.4,0.9,3.4,1.8c1.1,0.9,2,2,2.5,3.2c0.6,1.4,0.9,2.7,0.9,4.3
					c0,2.6-0.8,4.7-2.5,6.2c-1.5,1.7-3.8,2.8-6.9,3.4c1.1,0.4,1.8,1.1,2.8,1.8c0.7,0.6,1.7,1.7,2.6,2.9l7.9,10.7l-3.6,2.6l-9.5-13
					c-0.7-1.1-1.5-2-2.3-2.6v-4.7c1.8-0.3,3.4-0.9,4.4-1.7c1.5-1.2,2.4-2.9,2.4-5.3c0-2.1-0.8-4-2.1-5c-1-0.9-2.7-1.5-4.7-1.7V218.4
					z M718,218.4h10.4c0.1,0,0.4,0,0.7,0v3.5c-0.5,0-0.9,0-1.4,0h-5.2l-0.3,13.9h4.3c0.9,0,1.8-0.2,2.6-0.2v4.7
					c-0.3-0.1-0.5-0.3-0.6-0.3c-1-0.6-2.3-0.9-3.8-0.9h-2.4l-0.3,15.6h-4.4L718,218.4z"/>
				<path class="st0" d="M792.3,217.8c2.9,0,5.3,0.3,7.5,1.1c2.3,0.8,4.1,2,5.8,3.5c2,1.7,3.5,3.8,4.6,6.4c1.1,2.4,1.5,5.1,1.5,8
					c0,2.6-0.5,5.2-1.5,7.6c-1.1,2.5-2.4,4.6-4.3,6.3c-1.6,1.7-3.6,2.8-5.9,3.7c-2.3,0.7-4.8,1.2-7.5,1.2h-0.1v-3.8
					c4.4,0,7.8-1.4,10.5-4.3c2.6-2.7,3.8-6.6,3.8-11.3c0-4.3-1.2-7.8-4-10.5c-2.6-2.6-6.1-3.9-10.4-3.9V217.8z M792.3,217.8
					L792.3,217.8v3.8l0,0c-4.3,0-7.7,1.3-10.4,4.1c-2.6,2.8-4,6.4-4,10.8c0,4.6,1.4,8.1,4,11c2.8,2.7,6.1,4.2,10.4,4.2l0,0v3.8
					c-2.9,0-5.5-0.5-7.7-1.2c-2.3-0.9-4.3-2.1-6.1-4c-1.8-1.8-3.2-3.8-4.1-6.1c-0.9-2.3-1.4-4.7-1.4-7.3c0-2.8,0.5-5.3,1.4-7.6
					c0.9-2.4,2.3-4.4,4.1-6.3c1.7-1.7,3.7-3,6.1-3.8C786.9,218.2,789.5,217.8,792.3,217.8z"/>
				<path class="st0" d="M863,220.5l-2.1,3.1c-1.2-0.8-2.4-1.4-3.7-1.7c-1.2-0.5-2.5-0.6-3.7-0.6c-2,0-3.7,0.5-5,1.6
					c-1.4,1.2-2,2.6-2,4.3c0,0.8,0.1,1.5,0.3,2.1c0.3,0.6,0.6,1.2,1.2,1.7c0.6,0.9,2.4,1.9,5.5,3.2c1.2,0.6,2.3,1.1,3,1.4
					c2.1,0.9,3.8,2.3,4.9,4c1.2,1.5,1.7,3.4,1.7,5.5c0,3-1.1,5.4-3.4,7.6c-2.1,2-5,2.9-8.4,2.9c-1.7,0-3.4-0.1-4.9-0.7
					c-1.7-0.5-3.4-1.2-5.1-2.3l1.7-3.4c1.7,1,3,1.7,4.3,2.2c1.4,0.3,2.5,0.6,3.4,0.6c2.3,0,4-0.6,5.5-2c1.4-1.4,2.1-3.1,2.1-5
					c0-0.8-0.2-1.5-0.6-2.3c-0.3-0.6-0.8-1.4-1.4-1.8c-1.2-0.9-3.5-2.2-6.7-3.6c-1.2-0.7-2-0.9-2.6-1.2c-1.7-0.8-2.9-2-3.7-3.4
					c-0.9-1.4-1.4-2.9-1.4-4.6c0-3.2,0.9-5.6,2.9-7.5c2-1.8,4.7-2.7,8.2-2.7c1.7,0,3.4,0.3,4.9,0.7
					C859.8,218.8,861.4,219.6,863,220.5z"/>
			</g>
			<path class="st1" d="M313.6,135.3c15.5,12.4,38.3,8.7,56.6-6.1c18.3-14.8,24.2-37.2,13-50c0,0-4.3-4.6,1.9-9.2
				c4.9-3.5,9.9,0.7,9.9,0.7c13.2,15.2,7.8,45-17.8,64.1C354.7,151.5,327.5,153.4,313.6,135.3z"/>
			<path class="st2" d="M209.8,149.5c25.4,2.2,48.8-10.9,60.3-30c11.4-19,4-38.2-16.5-42.5c0,0-7.9-1.5-3.8-7.7
				c3.4-4.9,11.7-3.9,11.7-3.9c24.4,5.1,37.1,29.4,20,55C266.5,142.8,236.9,156.6,209.8,149.5z"/>
			<linearGradient id="SVGID_1_" gradientUnits="userSpaceOnUse" x1="108.6391" y1="130.853" x2="271.3089" y2="130.853">
				<stop  offset="0" style="stop-color:#C2D245"/>
				<stop  offset="1.000000e-02" style="stop-color:#C2D245"/>
				<stop  offset="0.55" style="stop-color:#7AB150"/>
				<stop  offset="1" style="stop-color:#245231"/>
			</linearGradient>
			<path class="st3" d="M271.3,104c-20.5-23.4-59.1-23.9-94.7-6.2c-35.5,17.7-53.6,50.5-40.1,73.2c0,0,5.4,8.4-6.6,13.9
				c-9.4,4-15.9-4.1-15.9-4.1c-16-26.8,4-71.3,53.2-93.4C210.2,67.9,255.6,72.3,271.3,104z"/>
			<linearGradient id="SVGID_2_" gradientUnits="userSpaceOnUse" x1="149.363" y1="154.9811" x2="319.7634" y2="154.9811">
				<stop  offset="0" style="stop-color:#C2D245"/>
				<stop  offset="1" style="stop-color:#7AB150"/>
			</linearGradient>
			<path class="st4" d="M201.4,97.2c-55.8,39.1-43.7,68-17.1,85.8c50.5,33.9,115.5-43.9,133.2-30.2c6.1,5.1-6.4,17.9-6.4,17.9
				c-41.6,37.2-109.5,56.2-143,29.6C138.9,177.2,137.5,120.1,201.4,97.2z"/>
			<linearGradient id="SVGID_3_" gradientUnits="userSpaceOnUse" x1="179.8953" y1="141.8809" x2="248.2442" y2="141.8809">
				<stop  offset="0" style="stop-color:#7AB150"/>
				<stop  offset="1" style="stop-color:#245231"/>
			</linearGradient>
			<path class="st5" d="M248.2,96.7c-25.8,2.6-46.2,19.5-53.3,40c-7.1,20.5,4.7,37.6,26.3,37.9c0,0,8.2-0.1,5.5,6.7
				c-2.2,5.2-10.9,5.9-10.9,5.9c-25.6-0.5-43.9-21.5-32.6-49.3C193.1,113.6,219.7,94.9,248.2,96.7z"/>
			<path class="st0" d="M375.9,246c-19.3-1-37.8-0.6-84-7.6c-15.5-9.4-10.7-51.1-3.8-69.2c11.3-4,18.4-10.1,29.2-18.2
				c46-34.1,55.5-87.6,32-114.7c0,0-9-7.8-17.8-1.5c-11.1,8.4-3.4,16.7-3.4,16.7c20,22.9,9.5,63.1-23.3,89.5
				c-32.8,26.5-73.4,33.3-101.1,11c8.1,10.4,16.5,17.1,28.4,20.4c26.4,10.4,14.8,60.1,13.3,65.1c-42.1,10.6-68.5,11.8-125.1,16.9
				c-1.4,0.5-1.1,1.9,1.2,1.7c15.8,0.1,111,0.4,273.4,0.7L375.9,246z"/>
			<linearGradient id="SVGID_4_" gradientUnits="userSpaceOnUse" x1="120.5739" y1="80.7971" x2="324.2946" y2="80.7971">
				<stop  offset="0" style="stop-color:#C2D245"/>
				<stop  offset="0.55" style="stop-color:#7AB150"/>
				<stop  offset="1" style="stop-color:#245231"/>
			</linearGradient>
			<path class="st6" d="M276.8,144.3c55.3-47.2,32.8-78-3.8-95.6c-36.6-17.8-93.2-1.9-126.1,35.3c0,0-12,14.1-23.5,7.7
				c-8.8-5.2,2.3-20.2,2.3-20.2c38.9-44,114.4-69.9,161.6-43.1C328.6,51.7,346.3,114.4,276.8,144.3z"/>
		</g>
	</g>
</g>
</svg>
