<svg xmlns="http://www.w3.org/2000/svg" viewBox="0 0 1002.8 884.4"><defs><style>.cls-1{fill:#fff;}</style></defs><title>vigilado-blanco</title><g id="Capa_2" data-name="Capa 2"><g id="Layer_1" data-name="Layer 1"><path class="cls-1" d="M70.1,383.8v-3.1h4.6l-.2-5.1a15.26,15.26,0,0,0-.2-3.4,8.64,8.64,0,0,0-1.2-2.2,7.32,7.32,0,0,0-2.9-1.6v-3.2h.2a18,18,0,0,1,3.4,1.7,8.56,8.56,0,0,1,1.9,1.9,7.05,7.05,0,0,1,1.2,2.9,12.5,12.5,0,0,1,.5,3.6v8.5Zm0-23.9v-3.2h4.3v-14h2.7l.2,17.2Zm0-30.7V326c.2,0,.2-.2.5-.2a6.2,6.2,0,0,0,3.4-2.7,7.56,7.56,0,0,0,1-3.9,6.71,6.71,0,0,0-1.5-4.4,6.53,6.53,0,0,0-3.4-2.2v-3.2a10.11,10.11,0,0,1,5.5,3.2,10.92,10.92,0,0,1,1.9,6.3,12.37,12.37,0,0,1-1.4,6,12.75,12.75,0,0,1-4.6,3.6,3.65,3.65,0,0,1-1.4.7Zm0-23.7v-3.4a5.27,5.27,0,0,0,2.4-1.4,8.21,8.21,0,0,0,2.4-5.6,8.7,8.7,0,0,0-2.4-5.8,6,6,0,0,0-2.4-1.2v-3.4a14.73,14.73,0,0,1,1.7.7,9.72,9.72,0,0,1,4.4,4.1,10.37,10.37,0,0,1,1.4,5.6,11.56,11.56,0,0,1-1.7,5.8,10.21,10.21,0,0,1-4.3,3.9c-.6.3-1.1.5-1.5.7Zm0-25.8v-2.9h4.1V265.4h2.9v14.3Zm0-18.1v-3.4a3.18,3.18,0,0,0,2.2-1.5,6.94,6.94,0,0,0,2.4-5.6,7.35,7.35,0,0,0-2.4-5.8,5.07,5.07,0,0,0-2.2-1.2v-3.4c.7.3,1.2.5,1.7.7a9.55,9.55,0,0,1,4.1,4.1,10.84,10.84,0,0,1,1.4,5.6,12.13,12.13,0,0,1-1.4,5.8,12.85,12.85,0,0,1-4.3,3.8,9.88,9.88,0,0,0-1.5.9Zm0-25.9v-2.9h6.7v2.9Zm0-7.3v-2.6h0c1.7-.5,2.6-1,3.6-1.2a18.83,18.83,0,0,1-3.6-1.2V221l6.7,2.4v2.7l-6.7,2.3Zm0-11.8v-2.9h6.7v2.9Zm0-8.2v-2.9h4.1v-5.8a6.53,6.53,0,0,0-.2-2.2,3.1,3.1,0,0,0-.5-1.7c-.5-.5-.7-1-1.4-1.2a3.83,3.83,0,0,0-1.9-.5V191a6.17,6.17,0,0,1,3.1.7,5.61,5.61,0,0,1,2.2,1.7,7.54,7.54,0,0,1,1,2.4,21.84,21.84,0,0,1,.5,3.8v8.7H70.1Zm0-22.5v-3.1h6.7v3.1Zm0-8.9v-3.1l6.7,2.4v3.1L70.1,177Zm0-13.1v-3.4l6.7-2.7v3.4Zm0-3.4v3.4h-.2v9.7l.2.3V177l-4.4-1.7v-3.1l1.4.7v-8l-1.4.7v-3.1l4.4-2Zm0,22.3v3.1H65.7v-3.1Zm0,8.2v3.1h0a3.81,3.81,0,0,0-2.2.7,3.47,3.47,0,0,0-1.5,2,15.26,15.26,0,0,0-.2,3.4v5.3h3.9v2.9H65.7V193.2a2,2,0,0,1,1-1,6.1,6.1,0,0,1,3.4-1.2Zm0,22.7v2.9H65.7v-2.9Zm0,7.3v2.4h-.2L65.8,222v-2.4l4.3,1.4Zm0,4.8v2.6l-4.4,1.5v-2.6l4.4-1.5Zm0,7v2.9H65.7v-2.9Zm0,8v3.4a11.41,11.41,0,0,0-4.4-1V240a11.52,11.52,0,0,1,4.4.8Zm0,17.4v3.4a13.64,13.64,0,0,1-4.4.8h0v-3.2h0a13.59,13.59,0,0,0,4.4-1Zm0,18.6v2.9l-4.4.2v-3.1Zm0,7.9v3.4a8.68,8.68,0,0,0-4.4-1V284a14,14,0,0,1,4.4.7Zm0,17.5v3.4a11.52,11.52,0,0,1-4.4.8h0v-3.1h.2a13.64,13.64,0,0,0,4.2-1.1Zm0,7.4v3.2c-.2,0-.7-.2-1-.2l.7-3.2.3.2Zm0,16.5v3.2a16.82,16.82,0,0,1-4.4.7v-3.1a13.83,13.83,0,0,0,4.4-.8Zm0,30.7V360H65.7V344h1v12.8Zm0,8.4v3.2h0a11.85,11.85,0,0,0-4.4-.5v-3.1a14.66,14.66,0,0,1,4.4.4Zm0,15.5v3.1H65.7v-3.1ZM65.7,162.4v3.1l-4.8,1.7-1,.5v-3.2l5.8-2.1Zm0,9.7v3.1L59.9,173v-2.9h.5l5.3,2Zm0,10.7v3.1H59.9v-3.1Zm0,10.3v15.2H59.9v-2.9h3.6v-5.1a6.24,6.24,0,0,0-.5-2.9,2.88,2.88,0,0,0-1-1.7,3.23,3.23,0,0,0-2.2-.7h0v-2.9a3.79,3.79,0,0,1,2.4.7,5.13,5.13,0,0,1,2.2,2.4,9.59,9.59,0,0,1,1.3-2.1Zm0,20.6v2.9H59.9v-2.9Zm0,5.8v2.4L59.9,220v-2.4l5.8,1.9Zm0,7.7v2.6l-5.8,1.9V229l5.8-1.8Zm0,5.6v2.9H59.9v-2.9Zm0,7.2v3.1h-.3a15.94,15.94,0,0,0-5.1,1c0,.2-.2.2-.5.2V241a18.65,18.65,0,0,1,5.6-1Zm0,19.1v3.2a20,20,0,0,1-5.8-1V258a13.62,13.62,0,0,0,5.8,1.1Zm0,17.7v3.1H59.9v-3.1Zm0,7.2v3.2h-.3a13.61,13.61,0,0,0-4.8,1c-.2.2-.5.2-.7.5v-3.4a14.76,14.76,0,0,1,5.6-1.2h.2Zm0,19.1v3.1a15,15,0,0,1-5.8-1.2v-3.2a12.14,12.14,0,0,0,5.8,1.3Zm0,23.7v3.1h-.3a14,14,0,0,1-5.6-1v-3.3c.2.2.7.2,1,.4a13.46,13.46,0,0,0,4.6.7h.3Zm0,17.2v16H59.9v-3.2h3.9V344Zm0,20.8v3.1h-.3a10.35,10.35,0,0,0-5.6,1.2v-3.4l.2-.2a17.45,17.45,0,0,1,5.3-.7Zm0,15.9v3.1H59.9v-3.1Zm-5.8-67.4v-3.4h.5l.7,2.9A6.12,6.12,0,0,0,59.9,313.3ZM25.1,542.9l-.3-2.9a7,7,0,0,0,2.9-1,4.75,4.75,0,0,0,1.9-2.4,17.36,17.36,0,0,0,.5-3.4,5.79,5.79,0,0,0-.5-3.1,3.18,3.18,0,0,0-1.5-2.2,3.83,3.83,0,0,0-1.9-.5,3.56,3.56,0,0,0-1.9.5,4.23,4.23,0,0,0-1.2,2.2,17.52,17.52,0,0,0-1.2,4.1,20.39,20.39,0,0,1-1.5,4.6,4.71,4.71,0,0,1-2.2,2.4,3.23,3.23,0,0,1-2.2.7v-3.1a1.39,1.39,0,0,0,1.2-.7c.5-.5,1-2.2,1.7-4.6a20.26,20.26,0,0,1,1.5-5,4.55,4.55,0,0,1,2.2-2.9,6.28,6.28,0,0,1,6.8,0,8.38,8.38,0,0,1,2.7,2.9,13.47,13.47,0,0,1,1,4.6,15.14,15.14,0,0,1-1,5.3,6.88,6.88,0,0,1-2.7,3.1,6.93,6.93,0,0,1-4.3,1.4ZM59.9,164.6v3.2c-1.4.4-2.9.9-3.9,1.2a19.88,19.88,0,0,1,3.9,1.2v2.9l-6.3-2.4v-3.4l6.3-2.7Zm0,18.2v3.1H53.6v-3.1Zm0,9.4v2.9a2.64,2.64,0,0,0-1.9.7,1.74,1.74,0,0,0-1.2,1.4,17.33,17.33,0,0,0-.2,3.6v4.6H60v2.9l-6.3.3v-8.7a10.35,10.35,0,0,1,.7-4.4,5.65,5.65,0,0,1,2.2-2.4,5,5,0,0,1,3.1-1h.2Zm0,21.5v2.9H57.5l2.4,1V220l-6-2.2v-4.1Zm0,15.5v2.7l-2.6,1h2.6v2.9l-6,.2v-4.8l6-2Zm0,11.8v3.4a6.18,6.18,0,0,0-2.6,2.7,8.19,8.19,0,0,0-1.2,4.1,7.61,7.61,0,0,0,2.2,5.6A5.91,5.91,0,0,0,60,258v3.3a11.59,11.59,0,0,1-3.1-2.2,10.66,10.66,0,0,1-3.4-7.9,12.13,12.13,0,0,1,1.4-5.8,13.63,13.63,0,0,1,4.4-3.9c.1-.2.4-.2.6-.5Zm0,35.8v3.1h-6v-3.1Zm0,8.4v3.4a7.73,7.73,0,0,0-2.6,2.5,6.46,6.46,0,0,0-1,4.1,7.77,7.77,0,0,0,2.2,5.6,17.41,17.41,0,0,1,1.4,1.2v3.2a13.51,13.51,0,0,1-3.1-1.9,10.77,10.77,0,0,1-3.1-8,12.13,12.13,0,0,1,1.4-5.8,10.21,10.21,0,0,1,4.3-3.9c0-.4.3-.4.5-.4Zm0,24.7v3.4a7.63,7.63,0,0,0-2.6,1.9,6.86,6.86,0,0,0-1,3.9,7.57,7.57,0,0,0,1.2,4.3,6.29,6.29,0,0,0,2.4,2.2v3.3c-.2-.2-.5-.2-.7-.5a10.09,10.09,0,0,1-4.1-3.8,10.84,10.84,0,0,1-1.4-5.6,8.72,8.72,0,0,1,1.7-5.8,8.88,8.88,0,0,1,4.5-3.3Zm0,46.9V360H54.1V343.3h2.7v13.5Zm0,8.9v3.4h0a5.61,5.61,0,0,0-2.6,2.9,13.16,13.16,0,0,0-.5,3.8v4.9h3.1v3.1H54.1v-8c0-1.9.2-3.1.2-4.1a10.15,10.15,0,0,1,1.7-3.3,9.49,9.49,0,0,1,3.9-2.7Zm-43.7,154v-2.9h6.5a12.23,12.23,0,0,0,4.6-.7,3.45,3.45,0,0,0,2.2-1.9,6.16,6.16,0,0,0,.7-3.4c0-2.2-.5-3.7-1.5-4.6-1.2-1-3.1-1.4-6-1.4H16.2v-3.2h6.5a16.59,16.59,0,0,1,5.6.7,5.75,5.75,0,0,1,3.4,2.9c1,1.5,1.2,3.1,1.2,5.3a11.83,11.83,0,0,1-1,5.4,6.88,6.88,0,0,1-3.4,3.1,16.22,16.22,0,0,1-5.6.7Zm0-23.7v-2.9l4.1-.2v-5.8c0-1.9-.2-3.4-1-4.3a4.21,4.21,0,0,0-3.1-1.2v-3.1a6.72,6.72,0,0,1,4.8,1.9c1.4,1.2,2.2,3.4,2.2,6.8V493h9.4v3.1H16.2Zm0-22v-3.1h2.9V458.1h2.7l.3,12.8h7.7V456.6h2.7V474Zm0-22v-3.1h3.4v-6.5a8,8,0,0,0-.5-3.1,2.78,2.78,0,0,0-1.4-1.9,3,3,0,0,0-1.4-.5v-3.2a4.91,4.91,0,0,1,3.6,1.5c1,.9,1.7,2.7,2.2,4.8a6.93,6.93,0,0,1,1-1.7c1-.9,1.9-1.7,3.1-2.6l6.3-3.9v3.6l-4.8,3.2c-1.2.9-2.4,1.6-3.1,2.2a10.06,10.06,0,0,0-1.5,1.7,3.4,3.4,0,0,0-.7,1.5v5.1H32.6v3.1H16.2Zm0-24.2v-3.2H32.4v3.2Zm0-8.9V416H32.4v2.9Zm0-4.3V411l11.1-7.2H16.2v-2.9l16.2-.3v3.2L16.2,414.6Zm0-25.4V386H32.4v3.2Zm0-14.3v-3.2h2.6V358.9h2.7l.2,12.8h7.8V357.4h2.7v17.4h-16Zm0-22V350h16v2.9Zm0-4.4v-3.6l11.1-7.2H16.2v-2.9h16V338l-16,10.5Zm0-19.3V326H29.5v-5a9.75,9.75,0,0,0-.5-3.4,5.07,5.07,0,0,0-1.2-2.2,8.89,8.89,0,0,0-2.9-1.7,12.44,12.44,0,0,0-4.6-.5,10.76,10.76,0,0,0-4.1.5v-3.1a11.84,11.84,0,0,1,4.3-.5,13.56,13.56,0,0,1,4.6.5,18,18,0,0,1,3.4,1.7,8.56,8.56,0,0,1,1.9,1.9,4.53,4.53,0,0,1,1.2,2.9,16.4,16.4,0,0,1,.5,3.6v8.2l-15.9.3Zm0-23.9v-3.1h2.6V289.4h2.7v12.8h7.7v-14l2.9-.2v17.4H16.2Zm0-22v-2.9h16v2.9Zm0-4.3v-3.6l10.9-7.2H16.2v-2.9H31.9v3.1L16.2,279Zm0-18.9v-3.4a8.18,8.18,0,0,0,4.1.5,16.13,16.13,0,0,0,5.1-.7,6,6,0,0,0,3.4-2.6,6.9,6.9,0,0,0,1-3.9,5.86,5.86,0,0,0-1.5-4.4,6.81,6.81,0,0,0-4.4-2.4l.7-3.1a11.25,11.25,0,0,1,5.8,3.4,10.78,10.78,0,0,1,2,6,13.05,13.05,0,0,1-1.4,6.3,12.3,12.3,0,0,1-4.6,3.4,12.08,12.08,0,0,1-6,1.4,17.27,17.27,0,0,1-4.2-.5Zm0-24.9v-2.9H31.9v2.9Zm0-12.3V220l6.3,2.2v-7.7l-6.3,2.4v-3.1l15.7-6.5v3.6l-7,2.7v9.7l7,2.4v3.4l-15.7-6.2Zm0-25.9v-2.9h2.4V183.2h2.7v10.6H31.9v3.1H16.2Zm0-20.5v-2.9l15.7-.2v3.1Zm0-9v-2.9H31.7v2.9Zm0-4.6v-3.6l10.6-7H16.2v-2.9H31.7v3.1L16.2,162.9Zm0-22.4v-2.9l6,2.2v-8l-6,2.4V131l15.5-6.3v3.4l-7,2.7v9.7l7,2.6v3.1l-15.5-5.7Zm0-18.7V119H31.7v2.9H16.2Zm0-4.8v-3.4l10.4-7H16.2v-2.9H31.7v3.1L16.2,117Zm0-18.3V95.3a11.07,11.07,0,0,0,3.6.4,16.13,16.13,0,0,0,5.1-.7c1.7-.8,2.7-1.4,3.4-2.7a7.74,7.74,0,0,0-.5-8.4,7.82,7.82,0,0,0-4.4-2.4l.7-2.9A8.33,8.33,0,0,1,29.9,82a8.35,8.35,0,0,1,1.9,6,10,10,0,0,1-1.5,6A7.7,7.7,0,0,1,26,97.6a13.39,13.39,0,0,1-6.3,1.2,13.81,13.81,0,0,1-3.5-.1Zm0-25V70.6H31.7v3.1Zm0-8.9V61.6h1.9V48.8h2.7L21,61.6h7.7V47.5h2.7V64.7H16.2Zm0-22V39.6h2.4V33.1a8,8,0,0,0-.5-3.1,2.78,2.78,0,0,0-1.4-1.9.65.65,0,0,1-.5-.3V24.7a3.73,3.73,0,0,1,2.6,1.2A10.56,10.56,0,0,1,21,31a5.29,5.29,0,0,1,1-2,29.94,29.94,0,0,1,3.2-2.6l6.3-3.9v3.9l-4.8,2.9c-1.4.9-2.4,1.7-3.2,2.1a11.74,11.74,0,0,0-1.4,1.7,3.4,3.4,0,0,0-.7,1.5v5.1H31.6v3.2H16.2Zm0-27.1V12.8L22,15V7L16.2,9.2V6.3L31.4,0V3.4l-7,2.7v9.6l7,2.7v3.2Zm0,526.2h-.7a4.3,4.3,0,0,1-3.1-1A5.66,5.66,0,0,1,10,538a11,11,0,0,1-.7-4.1,14.36,14.36,0,0,1,.7-4.6,7.32,7.32,0,0,1,2.4-3.2,7,7,0,0,1,3.6-1l.2,2.9a4.13,4.13,0,0,0-3.1,1.4c-1,1-1.2,2.5-1.2,4.2,0,1.9.2,3.1,1,4.1a3.3,3.3,0,0,0,2.4,1.2,1.5,1.5,0,0,0,1-.2v3.2Zm0-535.6V9.2l-.7.2a40.85,40.85,0,0,1-4.8,1.7,26,26,0,0,1,4.6,1.2l1,.5v2.9l-8-2.9V9.4l7.9-3.1Zm0,18.4v3.1a3.89,3.89,0,0,0-1.5-.2,3.15,3.15,0,0,0-2.9,1.2,5.34,5.34,0,0,0-1,3.6v7.5l5.3-.2v3.2H8.4L8.1,32.8a12.44,12.44,0,0,1,.8-4.9,5.13,5.13,0,0,1,2.2-2.4,6.09,6.09,0,0,1,3.6-1,3.89,3.89,0,0,1,1.5.2Zm0,37v3.2H8.5V48.2h2.7V61.8h5Zm0,8.9v3.1H8.5V70.8l7.7-.2Zm0,24.7v3.4c-1-.3-1.7-.7-2.7-1a11.51,11.51,0,0,1-4.1-4.1A10.43,10.43,0,0,1,7.9,88a9.82,9.82,0,0,1,1.9-5.8,10.75,10.75,0,0,1,4.8-3.4l.7,3.2a5.67,5.67,0,0,0-3.6,2.4A6,6,0,0,0,10.5,88a7.41,7.41,0,0,0,1.4,4.6A5.38,5.38,0,0,0,15.3,95a1.21,1.21,0,0,0,.9.3Zm0,8.4v2.9H8.5v-2.9Zm0,9.9V117l-2.7,1.9h2.7v2.9H8.5v-3.2l7.7-5Zm0,17.4v3.2h-.5a19.08,19.08,0,0,1-4.6,1.7c1.4.5,2.9.7,4.3,1.2l.7.5v2.9l-7.5-2.9-.2-3.4,7.8-3.2Zm0,18.4v2.9H8.7v-2.9Zm0,9.9v3.6l-2.7,1.7h2.7v2.9l-7.5.3v-3.2l7.5-5.3Zm0,14.3v2.9H8.7v-2.9Zm0,20.5V197H8.7V181.6h2.7v12.6h4.8Zm0,19.6v3.1H16c-1.9.7-3.4,1.2-4.8,1.7,1.7.3,3.1.8,4.6,1.2l.5.3v2.9L8.8,220v-3.2l7.4-3.1Zm0,18.6v2.9H8.7v-2.9Zm0,24.4v3.4a21.4,21.4,0,0,1-2.2-1,8.91,8.91,0,0,1-4.1-3.8,11.92,11.92,0,0,1-1.4-5.6,10.18,10.18,0,0,1,1.7-6.1,8.89,8.89,0,0,1,5.1-3.1l.7,2.9a7.12,7.12,0,0,0-3.6,2.4c-1,1-1.2,2.2-1.2,3.9a8.35,8.35,0,0,0,1.2,4.3,7.47,7.47,0,0,0,3.4,2.7Zm0,8.5v2.9H9v-2.9Zm0,10.1v3.6l-2.4,1.4h2.4v2.9H9v-2.9l7.2-5Zm0,26.9v3.1H9V288.6h2.6v13.5h4.6Zm0,8.4v3.1c-.5.3-1,.3-1.5.7a4.53,4.53,0,0,0-2.4,2.9c-.5.7-.5,2-.5,3.9V326h4.4v3.2H9v-8a13.25,13.25,0,0,1,.5-4.1,7,7,0,0,1,1.4-3.4,12.19,12.19,0,0,1,4.1-2.9c.4,0,.7-.2,1.2-.2Zm0,24.2v2.9H9v-2.9Zm0,10.1v3.6L14,350h2.2v2.9h-7v-3.1l7-4.9Zm0,26.9V375h-7V358.3h2.7v13.5Zm0,14.2v3.2H11.8v7.7H9.1V378.6h2.7v7.7l4.4-.3Zm0,14.8v2.9h-7v-2.9Zm0,10.1v3.6l-1.9,1.4h1.9v2.9h-7v-3.2l7-4.7Zm0,13.8v3.2h-7v-3.2Zm0,8.9v3.2h-.5a3.15,3.15,0,0,0-2.9,1.2,6.19,6.19,0,0,0-1,3.6v7.2h4.4v3.1H9.4V441.7a8.77,8.77,0,0,1,.5-4.8,5.13,5.13,0,0,1,2.2-2.4,6,6,0,0,1,3.6-.9Zm0,37.3V474H9.4V457.3H12v13.5h4.2Zm0,7.5v3.1h0a4.53,4.53,0,0,0-2.4.7,4.26,4.26,0,0,0-1.5,2c0,.5-.2,1.4-.2,2.9v6h4.1V496H9.4v-8.7a15.26,15.26,0,0,1,.2-3.4,9.82,9.82,0,0,1,1-2.9,5.74,5.74,0,0,1,2.2-1.9,7.67,7.67,0,0,1,3.4-.7Zm0,23.2v3.2H9.4v-3.2Zm0,15.2v2.9H9.4v-2.9Z"/><path class="cls-1" d="M60.9,860.5l-19.3,7.1v-7.1l10.9-3.6-10.9-3.6v-6.5l19.3,6.8v6.9ZM41.6,825.2v-6.5H60.9v6.5Zm0-25.4V793a10.57,10.57,0,0,0,2.6.2c3.9,0,6.8-.9,8.7-2.6a9.12,9.12,0,0,0,2.6-6.8,13.06,13.06,0,0,0-.7-4.1,17.47,17.47,0,0,0-1.9-3.6H48.8v7.7H43.2V769.6h13a22.08,22.08,0,0,1,3.4,6,18.57,18.57,0,0,1,1.7,8,16.08,16.08,0,0,1-2.2,8.7,12.49,12.49,0,0,1-6,5.8,20.9,20.9,0,0,1-8.7,1.9,6.66,6.66,0,0,1-2.8-.2Zm0-49.5v-6.5H60.7v6.5Zm0-26.4v-6.8H55.1V701l5.6-.2v22.9l-19.1.2Zm0-45.2v-6.5l6,2.2v-9l-6,2.2v-6.8l18.8-7.5v7l-7.2,2.9v13l7.2,2.7v7l-18.8-7.2Zm0-42.3v-6.5H54.9v-5.1a19,19,0,0,0-.2-3.8,4.69,4.69,0,0,0-1.4-2.7,6,6,0,0,0-3.1-1.6,19.29,19.29,0,0,0-6-.7,9.74,9.74,0,0,0-2.4.2v-7h2.9a17.73,17.73,0,0,1,6.8,1,13.35,13.35,0,0,1,5.8,3.4,14.7,14.7,0,0,1,2.7,4.8,19,19,0,0,1,.7,5.9v12.3H41.6Zm0-44.9v-6.8a8.6,8.6,0,0,0,2.4.2,13.46,13.46,0,0,0,8.5-2.6,8.33,8.33,0,0,0,2.7-6.6,9,9,0,0,0-2.7-6.5,14.55,14.55,0,0,0-8.7-2.4,5.83,5.83,0,0,0-2.2.3v-7H44c5.3,0,9.4,1.4,12.3,4.4a14.88,14.88,0,0,1,4.6,11.3c0,4.9-1.5,8.7-4.6,11.6-2.9,2.9-7,4.3-12.1,4.3A10.57,10.57,0,0,1,41.6,591.5Zm0,276-13.1,4.8-.3-7.3,13.3-4.6v7.1Zm0-14.3-13.3-4.3v-7l13.3,4.8v6.5Zm0-293.2v7a10.57,10.57,0,0,0-6.1,2.2,8.18,8.18,0,0,0-2.6,6.5c0,2.9.7,5.1,2.6,6.6a9.44,9.44,0,0,0,6.1,2.4v6.8a19.85,19.85,0,0,1-5.8-1.2,17.1,17.1,0,0,1-4.4-3.2,9.16,9.16,0,0,1-2.9-4.1,16.29,16.29,0,0,1-1.5-7c0-4.8,1.5-8.7,4.6-11.6a16.82,16.82,0,0,1,10-4.4Zm0,49.1v7a12.13,12.13,0,0,0-3.4.5,8.94,8.94,0,0,0-3.1,1.9,5.29,5.29,0,0,0-1.4,2.9,25.57,25.57,0,0,0-.3,5.6v2.9h8.2v6.5H27.8V624.3a19.58,19.58,0,0,1,.7-6.1,10.19,10.19,0,0,1,2.9-5,17,17,0,0,1,5.3-3.2,28.74,28.74,0,0,1,4.9-.9Zm0,51.7v6.8L35.5,670l6.1,2.2v6.5l-13.5-5.3-.2-7,13.7-5.6Zm0,56.3v6.8H28.3v-6.8Zm0,26.6v6.5H28v-6.5Zm0,49.4v6.8a15.4,15.4,0,0,1-6.3-1.9,14.13,14.13,0,0,1-6-6.1,18.93,18.93,0,0,1-1.7-8,16.6,16.6,0,0,1,2.6-9.4,11.55,11.55,0,0,1,7-4.3l1.2,6.5a6.37,6.37,0,0,0-3.9,2.7,7.35,7.35,0,0,0-1.2,4.6c0,2.9.7,5.3,2.6,7a11.35,11.35,0,0,0,5.7,2.1Zm0,25.6v6.5H28.3v-6.5Z"/><path class="cls-1" d="M.7,873.3C0,567.8,0,562.1,0,562l5.2-5.3,5.4,5.4.7,311.2Z"/><path class="cls-1" d="M73.5,873.6c-.7-306.3-.7-311.4-.7-311.5l5.3-5.3h.3c5,0,5,.7,5.2,44.5l.6,272.3Z"/><path class="cls-1" d="M971.9,873.3v-4.1h0a7.28,7.28,0,0,0,5.1-2.1,7.94,7.94,0,0,0,2.2-5.6,7.25,7.25,0,0,0-2.2-5.3,7,7,0,0,0-5.1-2.2h0v-4.3h0a15.88,15.88,0,0,1,4.6,1,16.1,16.1,0,0,1,3.9,2.7,15.1,15.1,0,0,1,2.7,3.9,10.62,10.62,0,0,1,0,9,14.2,14.2,0,0,1-2.7,3.9,12.68,12.68,0,0,1-3.9,2.6,22.36,22.36,0,0,1-4.6.5Zm14.7-1.9v-4.8a14.88,14.88,0,0,0,4.1,2.2,11.45,11.45,0,0,0,3.4.7,4.61,4.61,0,0,0,2.7-.7,2.06,2.06,0,0,0,1-1.9c0-.7-1.2-1.9-3.6-3.1a18.08,18.08,0,0,0-1.7-1,10,10,0,0,1-4.4-3.2,6.21,6.21,0,0,1-1.2-3.6,5.42,5.42,0,0,1,2.2-4.6,8.89,8.89,0,0,1,5.6-1.7,14.87,14.87,0,0,1,3.6.5,9.24,9.24,0,0,1,3.6,1.5v4.4c-1.4-.7-2.9-1.2-3.9-1.7a14.71,14.71,0,0,0-3.4-.5,4.2,4.2,0,0,0-2.2.5c-.5.2-.7.7-.7,1.4,0,1.2,1.4,2.4,4.6,4.2l.5.2c2.4,1.2,4.1,2.2,4.8,3.2a6.2,6.2,0,0,1-1,8.4,10,10,0,0,1-6.1,1.7,11,11,0,0,1-4.1-.5A38.93,38.93,0,0,1,986.6,871.4Zm-14.7-21.8v4.3a6.8,6.8,0,0,0-5.3,2.2,7.25,7.25,0,0,0-2.2,5.3,7.61,7.61,0,0,0,2.2,5.6,7.24,7.24,0,0,0,5.3,2.1v4.1a11.63,11.63,0,0,1-12.1-11.9,11.33,11.33,0,0,1,3.4-8.2,12.16,12.16,0,0,1,8.7-3.5Zm-69.2,34.8v-3.8a8.77,8.77,0,0,0,4.8-1,2.27,2.27,0,0,0,1.7-2.2,2.72,2.72,0,0,0-1.9-2.4,12,12,0,0,0-4.6-.7v-4.4a10.19,10.19,0,0,1,2.4.5c1,.3,1.4.3,1.9.5a11,11,0,0,1,5.1,2.2,5.3,5.3,0,0,1,1.7,4.1,5.84,5.84,0,0,1-2.9,5.3c-1.9,1.2-4.5,1.9-8.2,1.9Zm0-18.1v-3.6a5.61,5.61,0,0,0,3.4-1.2c1-.7,1.2-1.7,1.2-3.2a3.85,3.85,0,0,0-1.2-3.1,6.1,6.1,0,0,0-3.4-1.2v-3.6a5.55,5.55,0,0,1,1.9-.2h9.2V854H910a4.48,4.48,0,0,1,1.2,2,5.2,5.2,0,0,1,.5,2.7,6.9,6.9,0,0,1-1.7,4.8,6.35,6.35,0,0,1-4.6,2.4c-.5.2-1,.2-1.7.5a4.14,4.14,0,0,0-1-.1Zm29.3,3.8a11.82,11.82,0,0,1-3.4,2.4,9.37,9.37,0,0,1-3.6.8,8.38,8.38,0,0,1-5.8-2.1,8.25,8.25,0,0,1-2.2-5.9V850.1h4.6v14c0,1.9.2,3.1,1.2,4.1.8,1,2,1.2,3.6,1.2a11.63,11.63,0,0,0,2.9-.5,6.73,6.73,0,0,0,2.7-2.4V850.1h4.6v22.7H932v-2.7Zm10.4,2.7V850.1H947v5.1c1.2-1.9,2.2-3.4,3.4-4.1a4,4,0,0,1,3.1-1.2,5.2,5.2,0,0,1,2.7.5,18.8,18.8,0,0,1,2.7,1.7l-2.4,4.1c-1-.7-1.4-1.2-2.2-1.4a7.85,7.85,0,0,0-2.2-.5,4,4,0,0,0-3.1,1.4,8,8,0,0,0-1.9,4.4v12.8h-4.7Zm-39.7-22.5v3.6h-.2a6.1,6.1,0,0,0-3.4,1.2,5.22,5.22,0,0,0-1.2,3.1,4.46,4.46,0,0,0,1.2,3.2,4.8,4.8,0,0,0,3.4,1.2h.2v3.6c-1.9.5-2.9,1-2.9,1.7s1,1.2,2.9,1.9v4.4h-1.5a8.51,8.51,0,0,0-3.9.7,2.24,2.24,0,0,0-1.4,2.2,2.34,2.34,0,0,0,1.7,2.4c1,.8,2.7,1,4.8,1h.2v3.8h-.2a17.61,17.61,0,0,1-8.2-1.7c-2-1.2-2.7-2.9-2.7-5.4a5.2,5.2,0,0,1,1.5-3.8,12.07,12.07,0,0,1,5.1-2.2,2.53,2.53,0,0,1-1.9-1.2,1.89,1.89,0,0,1-.7-1.4,2.19,2.19,0,0,1,.7-1.7,12.53,12.53,0,0,1,2.4-1.5,7.43,7.43,0,0,1-3.9-2.4,7.26,7.26,0,0,1-1.5-4.6,7.48,7.48,0,0,1,2.9-6.3,15.32,15.32,0,0,1,6.6-1.8Zm-23.4,23v-4.1h1.2a14.26,14.26,0,0,0,4.6-.7c1.4-.7,3.1-1.4,4.8-2.4v4.6c-1.5.7-3.2,1.7-4.6,2.2a17.92,17.92,0,0,1-5.1.7,1.56,1.56,0,0,0-.9-.3Zm0-10.9V859h6a6.13,6.13,0,0,0-1.7-3.9,5.92,5.92,0,0,0-4.1-1.5h-.3v-3.9h.5a10,10,0,0,1,7.8,3.2,12.87,12.87,0,0,1,2.9,8.7v.7H879.3Zm0-12.6v3.9a7.2,7.2,0,0,0-3.9,1.2,7.78,7.78,0,0,0-2.2,4.1h6v3.4h-6a8,8,0,0,0,2.2,5.1,7.22,7.22,0,0,0,3.9,1.6v4.1a9.86,9.86,0,0,1-7.5-3.2,12.14,12.14,0,0,1-3.4-8.9,11.14,11.14,0,0,1,3.2-8.2,9.88,9.88,0,0,1,7.7-3.1Zm-60.4,23.5v-4.1h1.2a15.6,15.6,0,0,0,4.6-.7c1.4-.7,3.1-1.4,4.8-2.4v4.6c-1.7.7-3.2,1.7-4.8,2.2a14.66,14.66,0,0,1-4.8.7c-.6-.1-.8-.3-1-.3Zm0-10.9V859h6a5.81,5.81,0,0,0-5.8-5.4h-.3v-3.9h.3c3.4,0,5.8,1,7.7,3.2a12.87,12.87,0,0,1,2.9,8.7v.7H818.9Zm26.8,7.7v-6.5a17,17,0,0,0,4.6,3.9,8.14,8.14,0,0,0,4.6,1.2,5.38,5.38,0,0,0,3.9-1.2,3.51,3.51,0,0,0,1.4-3.2,3.58,3.58,0,0,0-1-2.9c-.5-1-2.2-2.2-4.6-3.6-3.9-2.7-6.5-4.6-7.5-5.8a8.76,8.76,0,0,1-1.5-5.1,8.43,8.43,0,0,1,2.9-6.5,10.61,10.61,0,0,1,7.2-2.6,9.69,9.69,0,0,1,3.9.7,15.55,15.55,0,0,1,4.1,1.7v5.5a30.74,30.74,0,0,0-4.3-2.6,9.69,9.69,0,0,0-3.9-.7,5.08,5.08,0,0,0-3.6,1.2,3.7,3.7,0,0,0-1.4,2.9c0,1.7,1.9,3.8,6,6.3l.7.5c3.4,1.9,5.6,3.9,6.5,5.3a11.14,11.14,0,0,1,1.5,5.8,8.28,8.28,0,0,1-2.9,6.5,10.5,10.5,0,0,1-7.2,2.7,15.73,15.73,0,0,1-5.1-.7A16.52,16.52,0,0,1,845.7,870.1Zm-26.8-20.3v3.9a5.46,5.46,0,0,0-6.1,5.3h6v3.4h-6a6.12,6.12,0,0,0,2.2,5.1,6.33,6.33,0,0,0,3.8,1.6v4.1a10.31,10.31,0,0,1-7.7-3.2c-2.2-2.1-3.2-5.3-3.2-8.9,0-3.4,1-6.3,3.2-8.2a10.25,10.25,0,0,1,7.8-3.1ZM793,873.3v-3.8h1.2a8.31,8.31,0,0,0,2.7-.3c.7-.4,1.4-.7,2.2-1.2V855.2a4.38,4.38,0,0,0-2.2-1.2,12.82,12.82,0,0,0-2.7-.5,2.54,2.54,0,0,0-1.2.2v-4.1h.2a10.59,10.59,0,0,1,3.1.5,6.13,6.13,0,0,1,2.7,1.5V838.5h4.6v34.3H799v-1.2a7.87,7.87,0,0,1-2.7,1.5,15.15,15.15,0,0,1-3.1.2Zm0-23.7v4.1a6.1,6.1,0,0,0-4.1,1.9,8,8,0,0,0-1.9,5.8c0,2.4.5,4.4,1.9,5.8a6.63,6.63,0,0,0,4.1,2.2v3.8a10.7,10.7,0,0,1-8-3.2,11.8,11.8,0,0,1,8-20.4Zm-37,23.5V870c.5,0,1.2-.2,1.7-.2a14.32,14.32,0,0,0,2.2-1.5v-6.5a40.38,40.38,0,0,0-3.9,1.5V860l3.9-1.2c.2-.2.2-.2.2-.5v-.4a4.13,4.13,0,0,0-1-2.9,4.24,4.24,0,0,0-3.2-1v-4.1h.2c2.9,0,5.1.5,6.5,2,1.2,1.2,1.9,3.1,1.9,6v9.7c0,.7,0,1.4.2,1.6,0,.5.2.5.7.5a1,1,0,0,0,.7-.2c.5,0,1-.5,1.7-1v2.9a18.21,18.21,0,0,1-2.7,1.5,10,10,0,0,1-2.6.5,3.56,3.56,0,0,1-1.9-.5c-.2-.5-.7-1-.7-1.7-1.2.7-2.2,1.2-3.1,1.7C756.5,872.8,756.3,873.1,756,873.1Zm0-23.3v4.1h-.2a13.36,13.36,0,0,0-3.9.7,15.69,15.69,0,0,0-4.1,2.4v-4.6a12.87,12.87,0,0,1,3.9-1.9,16.1,16.1,0,0,1,4.3-.7Zm0,10.2v3.2a6,6,0,0,0-2.4,1.2,3.55,3.55,0,0,0-1.7,2.7c0,1,.2,1.7,1,2.1a3.65,3.65,0,0,0,2.4.8h.7v3.1a9.74,9.74,0,0,1-2.4.2,7.26,7.26,0,0,1-4.8-1.5,5,5,0,0,1-1.7-4.1,6,6,0,0,1,1.9-4.1,18,18,0,0,1,5.6-3.2l1.4-.4Zm-57.7,13.1V870c.7,0,1.2-.2,1.9-.2a21.65,21.65,0,0,0,2.2-1.5v-6.5a36.77,36.77,0,0,0-4.1,1.5V860l4.1-1.2v-.9c0-1.4-.2-2.4-1-2.9-.5-.7-1.7-1-3.1-1v-4.1h.5c2.9,0,5.1.5,6.3,2,1.4,1.2,2.2,3.1,2.2,6v11.3a.65.65,0,0,0,.7.5,2,2,0,0,0,1-.2c.2,0,.7-.5,1.4-1v2.9a15.76,15.76,0,0,1-2.4,1.5,13.18,13.18,0,0,1-2.6.5,2.89,2.89,0,0,1-1.9-.5,2.19,2.19,0,0,1-.7-1.7c-1.2.7-2.4,1.2-3.4,1.7-.4-.1-.7.2-1.1.2Zm14.7-.3V850.1h4.6V853a10.15,10.15,0,0,1,3.4-2.4,9.22,9.22,0,0,1,3.6-.7,7.61,7.61,0,0,1,5.8,2.2,7.76,7.76,0,0,1,2.2,5.8v15H728V859.1a6.46,6.46,0,0,0-1.2-4.1c-.7-1-1.9-1.2-3.6-1.2a7.56,7.56,0,0,0-2.9.5,6.14,6.14,0,0,0-2.7,2.4v16.2H713Zm16.9-32.4a6.92,6.92,0,0,1-1.9,3.4,3.15,3.15,0,0,1-2.9,1.2h-1a1,1,0,0,1-.7-.2l-1.9-.5a1.08,1.08,0,0,0-.7-.2h-.5a3,3,0,0,0-1.5.2c-.5.2-.7.7-1,1.2h-2.2a7.25,7.25,0,0,1,1.7-3.4,5.5,5.5,0,0,1,3.2-1.2h.7a1.08,1.08,0,0,0,.7.2l2,.7c.2,0,.5.2.7.2h.7a2.07,2.07,0,0,0,1.5-.5,1.86,1.86,0,0,0,.9-1.2h2.2Zm8.5,32.4V850.1H743v22.7Zm-1.2-25.9,5.3-8.5h4.4l-7,8.5Zm-38.9,2.9v4.1h0a11,11,0,0,0-7.9,3.1v-4.6a11.3,11.3,0,0,1,3.8-1.9,13,13,0,0,1,4.1-.7Zm0,10.2v3.2a4.23,4.23,0,0,0-2.2,1.2,3.09,3.09,0,0,0-1.7,2.7,2.54,2.54,0,0,0,.7,2.1,4.34,4.34,0,0,0,2.7.8h.5v3.1a8.2,8.2,0,0,1-2.2.2,6.9,6.9,0,0,1-4.8-1.5,5,5,0,0,1-1.7-4.1,5.75,5.75,0,0,1,1.7-4.1,18.11,18.11,0,0,1,5.8-3.2l1.2-.4Zm-22.5,13.3v-3.8a8.24,8.24,0,0,0,4.1-1.9,8.41,8.41,0,0,0,2.2-6.1,7.61,7.61,0,0,0-2.2-5.8,7.48,7.48,0,0,0-4.1-1.9v-4.1a11.33,11.33,0,0,1,8,3.4,12.82,12.82,0,0,1,3.1,8.5,13,13,0,0,1-3.1,8.7A11,11,0,0,1,675.8,873.3Zm0-23.7v4.1h-1.2a8.6,8.6,0,0,0-2.4.2,7.71,7.71,0,0,0-2.4,1.2V868a9,9,0,0,0,2.4,1.2,5.85,5.85,0,0,0,2.4.3h1.2v3.8h0a18.3,18.3,0,0,1-3.4-.2,6.13,6.13,0,0,1-2.7-1.5v12.8h-4.6V850.1h4.6v1.5a12.54,12.54,0,0,1,2.7-1.5,12.13,12.13,0,0,1,3.4-.5Zm-67.2,23.7v-4.1h0a7.08,7.08,0,0,0,5.3-2.1,8.4,8.4,0,0,0,2.2-5.6,7.25,7.25,0,0,0-2.2-5.3,7.16,7.16,0,0,0-5.3-2.2h0v-4.3h.2a14.58,14.58,0,0,1,4.6,1,13,13,0,0,1,3.9,2.7,15.1,15.1,0,0,1,2.7,3.9,13.49,13.49,0,0,1,.7,4.4,13.85,13.85,0,0,1-.7,4.6,14.2,14.2,0,0,1-2.7,3.9,12.68,12.68,0,0,1-3.9,2.6,14.35,14.35,0,0,1-4.6.8h-.2Zm16.4-.5V850.1h4.6V853a10.15,10.15,0,0,1,3.4-2.4,9.22,9.22,0,0,1,3.6-.7,6.91,6.91,0,0,1,4.1,1,5.46,5.46,0,0,1,2.9,2.9,13,13,0,0,1,3.9-2.9,8.85,8.85,0,0,1,4.1-1,7.61,7.61,0,0,1,5.8,2.2,7.76,7.76,0,0,1,2.2,5.8v15H655V859.1a6.46,6.46,0,0,0-1.2-4.1c-.7-1-1.9-1.2-3.6-1.2a9.59,9.59,0,0,0-3.1.5,7.76,7.76,0,0,0-2.4,2.4v16.2H640V859.1c0-2-.2-3.1-1.2-4.1-.7-1-1.9-1.2-3.6-1.2a6,6,0,0,0-5.6,2.9v16.2H625Zm-16.4-23.2v4.3a6.67,6.67,0,0,0-5.1,2.2,7.25,7.25,0,0,0-2.2,5.3,7.61,7.61,0,0,0,2.2,5.6,6.94,6.94,0,0,0,5.1,2.1v4.1a11.69,11.69,0,0,1-8.5-3.4,11,11,0,0,1-3.4-8.5,10.59,10.59,0,0,1,3.4-8.2,12.21,12.21,0,0,1,8.5-3.5ZM506.4,862.9v-4.6h5.3l-5.3-12v-7.8h1.7l15.2,34.3h-5.1l-4.3-9.9Zm19,7.5a2.84,2.84,0,0,1,1-2.2,2.92,2.92,0,0,1,2.2-.7,2.49,2.49,0,0,1,1.9.7,2.62,2.62,0,0,1,.9,2.2,3,3,0,0,1-.9,2.2,2.73,2.73,0,0,1-1.9.8,2.61,2.61,0,0,1-2.2-.8,3.15,3.15,0,0,1-1-2.2Zm14.8,2.9a2.44,2.44,0,0,1-1.4-1.2,2.06,2.06,0,0,1-.7-1.7,3.72,3.72,0,0,1,1-2.2,2.64,2.64,0,0,1,1.9-.7,2.84,2.84,0,0,1,2.4,1.2,5.29,5.29,0,0,1,1,3.4,7.84,7.84,0,0,1-1.4,4.6,12.5,12.5,0,0,1-4.6,2.9v-1a3.52,3.52,0,0,0,1.4-2,4.69,4.69,0,0,0,.5-2.7v-.6Zm53.2-8.4v5.5a54.09,54.09,0,0,1-6.3,2.4,27,27,0,0,1-6.3.7,20.47,20.47,0,0,1-5.6-.7,29.31,29.31,0,0,1-5.1-2.4,15.77,15.77,0,0,1-6-6.3,21,21,0,0,1-1.9-8.5,21.46,21.46,0,0,1,1.2-6.7,19.71,19.71,0,0,1,4.1-5.8,20.5,20.5,0,0,1,6.1-3.9,26.44,26.44,0,0,1,7.7-1.2,28.72,28.72,0,0,1,5.8.7,18.78,18.78,0,0,1,5.8,1.9v5.3a59.61,59.61,0,0,0-6-2.7,22.59,22.59,0,0,0-5.6-.7c-4.1,0-7.5,1.2-9.9,3.6a13.16,13.16,0,0,0-.3,18.8,14.07,14.07,0,0,0,9.9,3.9,19.37,19.37,0,0,0,6-1.2C589,867.3,591.2,866.1,593.4,864.9Zm-87-26.4V846l-5.3,12.3h5.3v4.6h-7.3l-4.4,9.9h-5.1l15-34.3Zm-79.8,24.4v-4.6h5.3l-5.3-12v-7.8h1.7l15.2,34.3h-5.1l-4.6-9.9Zm30.4,7.2v-6.5a14,14,0,0,0,4.4,3.9,8.14,8.14,0,0,0,4.6,1.2,5.91,5.91,0,0,0,4.1-1.2,3.51,3.51,0,0,0,1.4-3.2,5,5,0,0,0-1-2.9c-.7-1-2.4-2.2-4.8-3.6-3.9-2.7-6.3-4.6-7.2-5.8a7.67,7.67,0,0,1-1.7-5.1,8.43,8.43,0,0,1,2.9-6.5,11,11,0,0,1,7.5-2.6,11.94,11.94,0,0,1,3.9.7,18.61,18.61,0,0,1,3.6,1.7v5.5a23.94,23.94,0,0,0-3.9-2.6,11,11,0,0,0-3.8-.7,5.38,5.38,0,0,0-3.9,1.2,3.42,3.42,0,0,0-1.4,2.9c0,1.7,1.9,3.8,6,6.3l.7.5a18.92,18.92,0,0,1,6.3,5.3,11.09,11.09,0,0,1,1.4,5.8,8.28,8.28,0,0,1-2.9,6.5,9,9,0,0,1-7,2.7,17.92,17.92,0,0,1-5.1-.7,12,12,0,0,1-4.1-2.8Zm24.4.3a3.41,3.41,0,0,1,.7-2.2,3.6,3.6,0,0,1,2.2-.7,2.51,2.51,0,0,1,2.9,2.9,3.81,3.81,0,0,1-.7,2.2,3.29,3.29,0,0,1-2.2.8,3.52,3.52,0,0,1-2.2-.8A4.73,4.73,0,0,1,481.4,870.4Zm-54.8-31.9v7.8l-.2-.3-5.1,12.3h5.3v4.6h-7.2l-4.6,9.9h-2.2l-1.4-2v-1.2l13.5-31.2h1.9Zm-15.5,31.2v1.2l-7-10.6a8.86,8.86,0,0,0-2-2.4,4.57,4.57,0,0,0-1.7-1.4,9.7,9.7,0,0,0,5.1-2.9,9.93,9.93,0,0,0,1.4-5.6,9,9,0,0,0-2.9-7,12.18,12.18,0,0,0-7.7-2.4v4.1a7.43,7.43,0,0,1,3.9,1.4,4.21,4.21,0,0,1,1.7,3.8c0,1.9-.5,3.4-1.7,4.1a6.46,6.46,0,0,1-3.9,1.2v5.6c1.2.7,2.7,2.4,4.4,5.1l5.8,8.9h3.4Zm-14.7-31.2v4.1h-5.3v10.9h4.1c.5,0,1,0,1.2-.3v5.6h0a5.23,5.23,0,0,0-3.9-1.2H391v15.2h-5V838.5h10.4Zm-34.1,35v-4.6a22.77,22.77,0,0,0,5.1-.9,14.57,14.57,0,0,0,4.1-2.9,13.49,13.49,0,0,0,2.9-4.4,11.32,11.32,0,0,0,1-5.1,9.64,9.64,0,0,0-1-4.8,13.49,13.49,0,0,0-2.9-4.4,14.57,14.57,0,0,0-4.1-2.9,13.09,13.09,0,0,0-5.1-.9V838a23.37,23.37,0,0,1,7,1.2,20,20,0,0,1,6,3.9,16.06,16.06,0,0,1,3.9,5.8,16.85,16.85,0,0,1,1.4,7,17.6,17.6,0,0,1-1.4,6.8,19.1,19.1,0,0,1-3.9,5.8,24.65,24.65,0,0,1-6,3.9A23.3,23.3,0,0,1,362.3,873.5Zm0-35.5v4.6h0a13.09,13.09,0,0,0-5.1.9,27.75,27.75,0,0,0-4.4,2.9,10.85,10.85,0,0,0-2.7,4.1,13.23,13.23,0,0,0-1,5.1,10.13,10.13,0,0,0,1,5.1,10.51,10.51,0,0,0,2.7,4.4,9.92,9.92,0,0,0,4.4,2.7,11.29,11.29,0,0,0,5.1,1.2h0v4.6h0a18.6,18.6,0,0,1-7-1.4,16.3,16.3,0,0,1-6-3.6,21.81,21.81,0,0,1-4.1-6.1,21.57,21.57,0,0,1-1.2-6.8,17.11,17.11,0,0,1,1.4-6.7,14.89,14.89,0,0,1,3.9-5.8,21.36,21.36,0,0,1,6-3.9,20.24,20.24,0,0,1,7-1.3ZM234.4,858.8v-5.6a6.46,6.46,0,0,0,3.9-1.2,4.94,4.94,0,0,0,1.7-4.1c0-1.7-.5-3.1-1.7-3.8a7.25,7.25,0,0,0-3.9-1.4v-4.1a12.39,12.39,0,0,1,7.7,2.4,9,9,0,0,1,2.9,7,8.69,8.69,0,0,1-1.7,5.6,9.14,9.14,0,0,1-4.8,2.9c.5.5,1.2.7,1.7,1.4a9,9,0,0,1,1.9,2.4l8.5,12.6h-6l-6-8.9c-1.8-2.8-3-4.5-4.2-5.2Zm18.2,14V838.5h20.7v4.4H257.4v10.4h15.5v4.6H257.4v10.6h16.4v4.4H252.6Zm37.9.3-15.2-34.6h5.1l10.9,24.7,10.9-24.7h5.1l-15.5,34.6Zm19.6-.3V838.5h4.8v34.3Zm10.6-2.7v-6.5a18.66,18.66,0,0,0,4.6,3.9,7.5,7.5,0,0,0,4.4,1.2,5.75,5.75,0,0,0,4.1-1.2,3.51,3.51,0,0,0,1.4-3.2,3.58,3.58,0,0,0-1-2.9c-.7-1-2.2-2.2-4.8-3.6-3.9-2.7-6.3-4.6-7.3-5.8a8.7,8.7,0,0,1-1.4-5.1,8.43,8.43,0,0,1,2.9-6.5,10.25,10.25,0,0,1,7.2-2.6,10.72,10.72,0,0,1,3.9.7,13.23,13.23,0,0,1,3.9,1.7v5.5a29.89,29.89,0,0,0-4.1-2.6,10.36,10.36,0,0,0-3.9-.7,6,6,0,0,0-3.9,1.2,3.51,3.51,0,0,0-1.5,2.9c0,1.7,2.2,3.8,6.3,6.3l.7.5a21.34,21.34,0,0,1,6.3,5.3,9.66,9.66,0,0,1,1.7,5.8,8.28,8.28,0,0,1-2.9,6.5,10.57,10.57,0,0,1-7.3,2.7,16.13,16.13,0,0,1-5.1-.7A18,18,0,0,1,320.7,870.1Zm-86.3-31.6v4.1h-5.5v10.9H233a2.23,2.23,0,0,0,1.4-.3v5.6h0a5.51,5.51,0,0,0-3.9-1.2h-1.7v15.2H224V838.5h10.4Zm-26.5,19.6v-4.4a7.11,7.11,0,0,0,4.3-1.2,5.23,5.23,0,0,0,1.7-4.1,4.94,4.94,0,0,0-1.7-4.1c-1-1-2.4-1.2-4.3-1.5v-4.4a11.88,11.88,0,0,1,8,2.7,8.5,8.5,0,0,1,3.2,7.2,8.37,8.37,0,0,1-3.2,7A11.62,11.62,0,0,1,207.9,858.1Zm0-19.6v4.4h-6.3v10.9h6.3v4.4h-6.3V873h-4.8V838.7h11.1Zm-43.3,24.4v-4.6h5.3l-5.3-12v-7.8h1.7l15.2,34.3h-5.1l-4.4-9.9Zm-16.5,5.6h.5v4.4h4.3l4.4-9.9h7.2v-4.6h-5.3l5.3-12.3v-7.5h-1.7l-14.7,33.6Zm-20.7,4.3V838.5h4.8v30h16v3.6l-.2.7H127.4Z"/></g></g></svg>