<?xml version="1.0" encoding="utf-8"?>
<!-- Generator: Adobe Illustrator 24.0.1, SVG Export Plug-In . SVG Version: 6.00 Build 0)  -->
<svg version="1.1" id="Layer_1" xmlns="http://www.w3.org/2000/svg" xmlns:xlink="http://www.w3.org/1999/xlink" x="0px" y="0px"
	 viewBox="0 0 1154.8 1018.4" style="enable-background:new 0 0 1154.8 1018.4;" xml:space="preserve">
<style type="text/css">
	.st0{fill:#686868;}
</style>
<g>
	<g>
		<path class="st0" d="M146.1,450.8v-3.1h4.6l-0.2-5.1c0-1.5,0-2.7-0.2-3.4c-0.5-1-0.7-1.7-1.2-2.2c-0.7-0.7-1.7-1.2-2.9-1.6v-3.2
			h0.2c1.2,0.5,2.4,1,3.4,1.7c0.7,0.5,1.4,1.2,1.9,1.9c0.5,0.7,1,1.7,1.2,2.9c0.3,1,0.5,2.2,0.5,3.6v8.5H146.1L146.1,450.8z
			 M146.1,426.9v-3.2h4.3v-14h2.7l0.2,17.2H146.1L146.1,426.9z M146.1,396.2v-3.2c0.2,0,0.2-0.2,0.5-0.2c1.5-0.5,2.7-1.5,3.4-2.7
			c0.7-1.2,1-2.5,1-3.9c0-1.7-0.5-3.2-1.5-4.4c-0.7-1-1.9-1.7-3.4-2.2v-3.2c2.4,0.5,4.1,1.7,5.5,3.2c1.2,1.7,1.9,3.9,1.9,6.3
			c0,2.4-0.5,4.3-1.4,6c-1.2,1.5-2.7,2.7-4.6,3.6C147,396,146.5,396,146.1,396.2L146.1,396.2z M146.1,372.5v-3.4
			c1-0.3,1.7-0.7,2.4-1.4c1.4-1.5,2.4-3.4,2.4-5.6c0-2.4-1-4.1-2.4-5.8c-0.7-0.5-1.4-1-2.4-1.2v-3.4c0.7,0.2,1.2,0.5,1.7,0.7
			c1.9,1,3.4,2.2,4.4,4.1c1,1.7,1.4,3.4,1.4,5.6c0,2.1-0.7,4.1-1.7,5.8c-1,1.7-2.4,2.9-4.3,3.9C147,372.1,146.5,372.3,146.1,372.5
			L146.1,372.5z M146.1,346.7v-2.9h4.1v-11.4h2.9v14.3H146.1L146.1,346.7z M146.1,328.6v-3.4c1-0.2,1.7-0.7,2.2-1.5
			c1.7-1.4,2.4-3.4,2.4-5.6c0-2.5-0.7-4.1-2.4-5.8c-0.5-0.4-1.2-1-2.2-1.2v-3.4c0.7,0.3,1.2,0.5,1.7,0.7c1.7,1,3.2,2.2,4.1,4.1
			c1,1.7,1.4,3.6,1.4,5.6c0,2.2-0.5,4.1-1.4,5.8c-1.2,1.7-2.7,2.9-4.3,3.8C147,328,146.5,328.3,146.1,328.6L146.1,328.6z
			 M146.1,302.7v-2.9h6.7v2.9H146.1L146.1,302.7z M146.1,295.4v-2.6l0,0c1.7-0.5,2.6-1,3.6-1.2c-1-0.3-2.2-0.5-3.6-1.2V288l6.7,2.4
			v2.7L146.1,295.4L146.1,295.4z M146.1,283.6v-2.9h6.7v2.9H146.1L146.1,283.6z M146.1,275.4v-2.9h4.1v-5.8c0-1,0-1.7-0.2-2.2
			c0-0.7-0.2-1.2-0.5-1.7c-0.5-0.5-0.7-1-1.4-1.2c-0.5-0.3-1.2-0.5-1.9-0.5V258c1.2,0,2.2,0.2,3.1,0.7c1,0.5,1.7,1,2.2,1.7
			c0.5,0.7,0.7,1.4,1,2.4c0.2,1.2,0.5,2.4,0.5,3.8v8.7H146.1L146.1,275.4z M146.1,252.9v-3.1h6.7v3.1H146.1L146.1,252.9z M146.1,244
			v-3.1l6.7,2.4v3.1L146.1,244L146.1,244z M146.1,230.9v-3.4l6.7-2.7v3.4L146.1,230.9z M146.1,227.5v3.4h-0.2v9.7l0.2,0.3v3.1
			l-4.4-1.7v-3.1l1.4,0.7v-8l-1.4,0.7v-3.1L146.1,227.5L146.1,227.5z M146.1,249.8v3.1h-4.4v-3.1H146.1L146.1,249.8z M146.1,258v3.1
			l0,0c-0.7,0-1.5,0.2-2.2,0.7c-0.7,0.5-1.2,1-1.5,2c-0.2,0.7-0.2,1.9-0.2,3.4v5.3h3.9v2.9h-4.4v-15.2c0.2-0.5,0.5-0.7,1-1
			C143.7,258.5,144.9,258,146.1,258L146.1,258L146.1,258z M146.1,280.7v2.9h-4.4v-2.9H146.1L146.1,280.7z M146.1,288v2.4h-0.2
			l-4.1-1.4v-2.4L146.1,288L146.1,288z M146.1,292.8v2.6l-4.4,1.5v-2.6L146.1,292.8L146.1,292.8z M146.1,299.8v2.9h-4.4v-2.9H146.1
			L146.1,299.8z M146.1,307.8v3.4c-1.2-0.5-2.7-1-4.4-1V307C143.4,307,144.9,307.3,146.1,307.8L146.1,307.8z M146.1,325.2v3.4
			c-1.5,0.5-2.9,0.8-4.4,0.8l0,0v-3.2l0,0C143.4,326.1,144.9,325.7,146.1,325.2L146.1,325.2z M146.1,343.8v2.9l-4.4,0.2v-3.1H146.1
			L146.1,343.8z M146.1,351.7v3.4c-1.2-0.7-2.7-1-4.4-1V351C143.4,351,144.9,351.3,146.1,351.7L146.1,351.7z M146.1,369.2v3.4
			c-1.2,0.5-2.7,0.8-4.4,0.8l0,0v-3.1h0.2C143.4,370.1,144.9,369.8,146.1,369.2L146.1,369.2z M146.1,376.6v3.2c-0.2,0-0.7-0.2-1-0.2
			l0.7-3.2L146.1,376.6L146.1,376.6z M146.1,393.1v3.2c-1.5,0.4-2.9,0.7-4.4,0.7v-3.1C143.4,393.8,144.9,393.6,146.1,393.1
			L146.1,393.1z M146.1,423.8v3.2h-4.4v-16h1v12.8H146.1L146.1,423.8z M146.1,432.2v3.2l0,0c-1.2-0.5-2.7-0.5-4.4-0.5v-3.1
			C143.4,431.8,144.9,431.8,146.1,432.2L146.1,432.2z M146.1,447.7v3.1h-4.4v-3.1H146.1z M141.7,229.4v3.1l-4.8,1.7l-1,0.5v-3.2
			L141.7,229.4L141.7,229.4z M141.7,239.1v3.1l-5.8-2.2v-2.9h0.5L141.7,239.1L141.7,239.1z M141.7,249.8v3.1h-5.8v-3.1H141.7
			L141.7,249.8z M141.7,260.1v15.2h-5.8v-2.9h3.6v-5.1c0-1.4-0.2-2.4-0.5-2.9c-0.2-0.7-0.5-1.4-1-1.7c-0.7-0.5-1.2-0.7-2.2-0.7l0,0
			v-2.9c1,0,1.7,0.2,2.4,0.7c1,0.5,1.7,1.4,2.2,2.4C140.8,261.3,141.3,260.6,141.7,260.1L141.7,260.1z M141.7,280.7v2.9h-5.8v-2.9
			H141.7L141.7,280.7z M141.7,286.5v2.4l-5.8-1.9v-2.4L141.7,286.5L141.7,286.5z M141.7,294.2v2.6l-5.8,1.9v-2.7L141.7,294.2
			L141.7,294.2z M141.7,299.8v2.9h-5.8v-2.9H141.7L141.7,299.8z M141.7,307v3.1h-0.3c-1.9,0-3.6,0.5-5.1,1c0,0.2-0.2,0.2-0.5,0.2
			V308c1.7-0.5,3.4-1,5.6-1H141.7L141.7,307z M141.7,326.1v3.2c-2.2,0-4.1-0.5-5.8-1v-3.3C137.4,325.7,139.3,326.1,141.7,326.1
			L141.7,326.1z M141.7,343.8v3.1h-5.8v-3.1H141.7L141.7,343.8z M141.7,351v3.2h-0.3c-1.9,0-3.4,0.5-4.8,1c-0.2,0.2-0.5,0.2-0.7,0.5
			v-3.4c1.7-0.7,3.6-1.2,5.6-1.2H141.7L141.7,351z M141.7,370.1v3.1c-2.2,0-4.1-0.5-5.8-1.2v-3.2
			C137.4,369.6,139.3,370.1,141.7,370.1L141.7,370.1z M141.7,393.8v3.1h-0.3c-2.2,0-3.9-0.3-5.6-1v-3.3c0.2,0.2,0.7,0.2,1,0.4
			c1.4,0.5,2.9,0.7,4.6,0.7H141.7L141.7,393.8z M141.7,411v16h-5.8v-3.2h3.9V411H141.7L141.7,411z M141.7,431.8v3.1h-0.3
			c-2.4,0-4.1,0.3-5.6,1.2v-3.4l0.2-0.2c1.5-0.5,3.4-0.7,5.3-0.7H141.7L141.7,431.8z M141.7,447.7v3.1h-5.8v-3.1H141.7L141.7,447.7z
			 M135.9,380.3v-3.4h0.5l0.7,2.9C136.6,380,136.4,380,135.9,380.3z M101.1,609.9l-0.3-2.9c1.2-0.2,2.2-0.5,2.9-1
			c0.7-0.5,1.5-1.2,1.9-2.4c0.2-1,0.5-2.2,0.5-3.4s0-2.4-0.5-3.1c-0.2-1-0.7-1.7-1.5-2.2c-0.5-0.3-1.2-0.5-1.9-0.5
			c-0.7,0-1.5,0.2-1.9,0.5c-0.5,0.5-1,1.2-1.2,2.2c-0.3,0.7-0.8,1.9-1.2,4.1c-0.5,2.2-1,3.6-1.5,4.6c-0.5,1-1.2,2-2.2,2.4
			c-0.7,0.5-1.2,0.7-2.2,0.7v-3.1c0.5,0,1-0.3,1.2-0.7c0.5-0.5,1-2.2,1.7-4.6c0.5-2.4,1-4.1,1.5-5c0.5-1.5,1.2-2.4,2.2-2.9
			c1-0.7,2.2-1,3.4-1c1.2,0,2.4,0.3,3.4,1c1.2,0.7,1.9,1.7,2.7,2.9c0.5,1.4,1,2.9,1,4.6c0,2.2-0.5,3.9-1,5.3
			c-0.7,1.4-1.5,2.4-2.7,3.1C104.2,609.4,102.8,609.9,101.1,609.9L101.1,609.9z M135.9,231.6v3.2c-1.4,0.4-2.9,0.9-3.9,1.2
			c1.5,0.2,2.7,0.8,3.9,1.2v2.9l-6.3-2.4v-3.4L135.9,231.6L135.9,231.6z M135.9,249.8v3.1h-6.3v-3.1H135.9L135.9,249.8z
			 M135.9,259.2v2.9c-0.7,0-1.4,0.2-1.9,0.7c-0.7,0.2-1,0.7-1.2,1.4c-0.2,0.8-0.2,2-0.2,3.6v4.6h3.4v2.9l-6.3,0.3v-8.7
			c0-1.9,0.2-3.4,0.7-4.4c0.5-0.9,1.2-1.9,2.2-2.4c1-0.7,1.9-1,3.1-1H135.9L135.9,259.2z M135.9,280.7v2.9h-2.4l2.4,1v2.4l-6-2.2
			v-4.1H135.9L135.9,280.7z M135.9,296.2v2.7l-2.6,1h2.6v2.9l-6,0.2v-4.8L135.9,296.2L135.9,296.2z M135.9,308v3.4
			c-1.2,0.7-1.9,1.4-2.6,2.7c-0.7,1.2-1.2,2.6-1.2,4.1c0,2.2,0.7,4.1,2.2,5.6c0.5,0.5,1.2,1,1.7,1.2v3.3c-1.2-0.7-2.2-1.2-3.1-2.2
			c-2.2-2.1-3.4-4.8-3.4-7.9c0-2.2,0.5-4.1,1.4-5.8c1.2-1.7,2.7-2.9,4.4-3.9C135.4,308.3,135.7,308.3,135.9,308L135.9,308z
			 M135.9,343.8v3.1h-6v-3.1H135.9L135.9,343.8z M135.9,352.2v3.4c-1,0.5-1.9,1.5-2.6,2.5c-0.7,1.2-1.2,2.6-1,4.1
			c0,2.1,0.7,4.1,2.2,5.6c0.5,0.5,1,0.7,1.4,1.2v3.2c-1.2-0.5-2.2-1.2-3.1-1.9c-2.2-2.2-3.1-4.9-3.1-8c0-2.2,0.5-4.1,1.4-5.8
			c1-1.7,2.4-2.9,4.3-3.9C135.4,352.2,135.7,352.2,135.9,352.2L135.9,352.2z M135.9,376.9v3.4c-1.2,0.5-1.9,1.2-2.6,1.9
			c-0.7,1-1,2.4-1,3.9c0,1.7,0.5,3.4,1.2,4.3c0.7,1,1.4,1.7,2.4,2.2v3.3c-0.2-0.2-0.5-0.2-0.7-0.5c-1.9-1-3.1-2.2-4.1-3.8
			c-1-1.7-1.4-3.6-1.4-5.6c0-2.4,0.5-4.4,1.7-5.8C132.5,378.6,134,377.6,135.9,376.9L135.9,376.9z M135.9,423.8v3.2h-5.8v-16.7h2.7
			v13.5H135.9L135.9,423.8z M135.9,432.7v3.4l0,0c-1.2,0.7-2.2,1.7-2.6,2.9c-0.2,0.7-0.5,1.9-0.5,3.8v4.9h3.1v3.1h-5.8v-8
			c0-1.9,0.2-3.1,0.2-4.1c0.5-1.5,1-2.4,1.7-3.3C133,434.2,134.5,433.2,135.9,432.7L135.9,432.7z M92.2,586.7v-2.9h6.5
			c2.2,0,3.6-0.3,4.6-0.7c1-0.2,1.7-1,2.2-1.9c0.5-0.7,0.7-1.9,0.7-3.4c0-2.2-0.5-3.7-1.5-4.6c-1.2-1-3.1-1.4-6-1.4h-6.5v-3.2h6.5
			c2.4,0,4.3,0.2,5.6,0.7c1.5,0.5,2.7,1.5,3.4,2.9c1,1.5,1.2,3.1,1.2,5.3c0,2.2-0.3,4.1-1,5.4c-0.7,1.4-1.9,2.4-3.4,3.1
			c-1.2,0.5-3.2,0.7-5.6,0.7H92.2L92.2,586.7z M92.2,563v-2.9l4.1-0.2v-5.8c0-1.9-0.2-3.4-1-4.3c-0.7-0.7-1.7-1.2-3.1-1.2v-3.1
			c1.9,0,3.6,0.7,4.8,1.9c1.4,1.2,2.2,3.4,2.2,6.8v5.8h9.4v3.1H92.2L92.2,563z M92.2,541v-3.1h2.9v-12.8h2.7l0.3,12.8h7.7v-14.3h2.7
			V541H92.2L92.2,541z M92.2,519v-3.1h3.4v-6.5c0-1.4-0.2-2.4-0.5-3.1c-0.2-1-0.7-1.4-1.4-1.9c-0.5-0.3-1-0.5-1.4-0.5v-3.2
			c1.4,0,2.6,0.5,3.6,1.5c1,0.9,1.7,2.7,2.2,4.8c0.2-0.7,0.7-1.2,1-1.7c1-0.9,1.9-1.7,3.1-2.6l6.3-3.9v3.6l-4.8,3.2
			c-1.2,0.9-2.4,1.6-3.1,2.2c-0.7,0.7-1.2,1.2-1.5,1.7c-0.5,0.5-0.5,1-0.7,1.5c0,0.2,0,0.8,0,1.7v3.4h10.2v3.1H92.2L92.2,519z
			 M92.2,494.8v-3.2h16.2v3.2H92.2L92.2,494.8z M92.2,485.9V483h16.2v2.9H92.2L92.2,485.9z M92.2,481.6v-3.6l11.1-7.2H92.2v-2.9
			l16.2-0.3v3.2L92.2,481.6L92.2,481.6z M92.2,456.2V453h16.2v3.2H92.2L92.2,456.2z M92.2,441.9v-3.2h2.6v-12.8h2.7l0.2,12.8h7.8
			v-14.3h2.7v17.4H92.2L92.2,441.9z M92.2,419.9V417h16v2.9H92.2L92.2,419.9z M92.2,415.5v-3.6l11.1-7.2H92.2v-2.9h16v3.2
			L92.2,415.5L92.2,415.5z M92.2,396.2v-3.2h13.3V388c0-1.4-0.2-2.7-0.5-3.4c-0.3-1-0.7-1.7-1.2-2.2c-0.7-0.7-1.7-1.2-2.9-1.7
			c-1.2-0.5-2.7-0.5-4.6-0.5c-1.5,0-2.9,0-4.1,0.5v-3.1c1.4-0.5,2.6-0.5,4.3-0.5c1.7,0,3.2,0,4.6,0.5c1.2,0.5,2.4,1,3.4,1.7
			c0.7,0.5,1.4,1.2,1.9,1.9c0.8,0.7,1,1.7,1.2,2.9c0.2,0.9,0.5,2.2,0.5,3.6v8.2L92.2,396.2L92.2,396.2z M92.2,372.3v-3.1h2.6v-12.8
			h2.7v12.8h7.7v-14l2.9-0.2v17.4H92.2L92.2,372.3z M92.2,350.3v-2.9h16v2.9H92.2L92.2,350.3z M92.2,346v-3.6l10.9-7.2H92.2v-2.9
			h15.7v3.1L92.2,346L92.2,346z M92.2,327.1v-3.4c1.4,0.5,2.6,0.7,4.1,0.5c1.9,0,3.6-0.2,5.1-0.7c1.5-0.5,2.7-1.4,3.4-2.6
			c0.8-1.2,1-2.6,1-3.9c0-2-0.5-3.4-1.5-4.4c-1-1.2-2.4-2.1-4.4-2.4l0.7-3.1c2.4,0.7,4.4,1.7,5.8,3.4c1.2,1.7,2,3.9,2,6
			c0,2.6-0.5,4.6-1.4,6.3c-1.2,1.4-2.7,2.6-4.6,3.4c-1.7,1-3.9,1.4-6,1.4C94.8,327.6,93.4,327.4,92.2,327.1L92.2,327.1z M92.2,302.2
			v-2.9h15.7v2.9H92.2L92.2,302.2z M92.2,289.9V287l6.3,2.2v-7.7l-6.3,2.4v-3.1l15.7-6.5v3.6l-7,2.7v9.7l7,2.4v3.4L92.2,289.9
			L92.2,289.9z M92.2,264v-2.9h2.4v-10.9h2.7v10.6h10.6v3.1H92.2L92.2,264z M92.2,243.5v-2.9l15.7-0.2v3.1H92.2L92.2,243.5z
			 M92.2,234.5v-2.9h15.5v2.9H92.2L92.2,234.5z M92.2,229.9v-3.6l10.6-7H92.2v-2.9h15.5v3.1L92.2,229.9L92.2,229.9z M92.2,207.5
			v-2.9l6,2.2v-8l-6,2.4V198l15.5-6.3v3.4l-7,2.7v9.7l7,2.6v3.1L92.2,207.5L92.2,207.5z M92.2,188.8V186h15.5v2.9H92.2L92.2,188.8z
			 M92.2,184v-3.4l10.4-7H92.2v-2.9h15.5v3.1L92.2,184L92.2,184z M92.2,165.7v-3.4c1.2,0.4,2.4,0.4,3.6,0.4c1.9,0,3.6-0.2,5.1-0.7
			c1.7-0.8,2.7-1.4,3.4-2.7c0.7-1.2,1.2-2.6,1-4.1c0-1.7-0.5-3.1-1.5-4.3c-1-1.2-2.4-1.9-4.4-2.4l0.7-2.9c2.7,0.4,4.6,1.7,5.8,3.4
			c1.5,1.7,1.9,3.6,1.9,6c0,2.7-0.5,4.6-1.5,6c-0.9,1.7-2.4,2.9-4.3,3.6c-1.9,1-4.1,1.2-6.3,1.2C94.6,165.9,93.4,165.9,92.2,165.7
			L92.2,165.7z M92.2,140.7v-3.1h15.5v3.1H92.2L92.2,140.7z M92.2,131.8v-3.2h1.9v-12.8h2.7l0.2,12.8h7.7v-14.1h2.7v17.2H92.2
			L92.2,131.8z M92.2,109.8v-3.2h2.4v-6.5c0-1.4-0.2-2.4-0.5-3.1c-0.2-1-0.7-1.4-1.4-1.9c0,0-0.3,0-0.5-0.3v-3.1
			c1,0,1.9,0.5,2.6,1.2c1,1.2,1.7,2.6,2.2,5.1c0.2-1,0.7-1.5,1-2c1-0.9,1.9-1.7,3.2-2.6l6.3-3.9v3.9l-4.8,2.9
			c-1.4,0.9-2.4,1.7-3.2,2.1c-0.7,0.8-1.2,1.3-1.4,1.7c-0.5,0.5-0.5,1-0.7,1.5c0,0.2,0,0.7,0,1.7v3.4h10.2v3.2H92.2L92.2,109.8z
			 M92.2,82.7v-2.9L98,82v-8l-5.8,2.2v-2.9l15.2-6.3v3.4l-7,2.7v9.6l7,2.7v3.2L92.2,82.7z M92.2,608.9c-0.2,0-0.5,0-0.7,0
			c-1.2,0-2.2-0.2-3.1-1c-1.2-0.7-1.9-1.7-2.4-2.9c-0.5-1.2-0.7-2.7-0.7-4.1c0-1.9,0.3-3.4,0.7-4.6c0.5-1.5,1.5-2.4,2.4-3.2
			c1.2-0.7,2.4-1,3.6-1l0.2,2.9c-1.5,0-2.4,0.7-3.1,1.4c-1,1-1.2,2.5-1.2,4.2c0,1.9,0.2,3.1,1,4.1c0.7,0.7,1.4,1.2,2.4,1.2
			c0.5,0,0.7,0,1-0.2V608.9L92.2,608.9z M92.2,73.3v2.9l-0.7,0.2c-1.9,0.7-3.4,1.4-4.8,1.7c1.4,0.2,3.2,0.7,4.6,1.2l1,0.5v2.9
			l-8-2.9v-3.4L92.2,73.3L92.2,73.3z M92.2,91.7v3.1c-0.5-0.2-1-0.2-1.5-0.2c-1.2,0-2.2,0.2-2.9,1.2c-0.7,0.8-1,2-1,3.6v7.5l5.3-0.2
			v3.2h-7.7l-0.3-10.1c0-2.2,0.3-3.7,0.8-4.9c0.5-1,1.2-1.9,2.2-2.4c1-0.7,2.2-1,3.6-1C91.2,91.5,91.7,91.5,92.2,91.7L92.2,91.7z
			 M92.2,128.7v3.2h-7.7v-16.7h2.7v13.6H92.2L92.2,128.7z M92.2,137.6v3.1h-7.7v-2.9L92.2,137.6L92.2,137.6z M92.2,162.3v3.4
			c-1-0.3-1.7-0.7-2.7-1c-1.7-1-3.1-2.4-4.1-4.1c-1-1.7-1.5-3.4-1.5-5.6c0-2.2,0.7-4.1,1.9-5.8c1.2-1.4,2.7-2.7,4.8-3.4l0.7,3.2
			c-1.7,0.5-2.9,1.2-3.6,2.4c-0.7,0.9-1.2,2.2-1.2,3.6c0,1.9,0.5,3.4,1.4,4.6c0.7,1.2,1.9,2,3.4,2.4
			C91.7,162.3,91.9,162.3,92.2,162.3L92.2,162.3z M92.2,170.7v2.9h-7.7v-2.9H92.2L92.2,170.7z M92.2,180.6v3.4l-2.7,1.9h2.7v2.9
			h-7.7v-3.2L92.2,180.6L92.2,180.6z M92.2,198v3.2h-0.5c-1.9,0.9-3.4,1.5-4.6,1.7c1.4,0.5,2.9,0.7,4.3,1.2l0.7,0.5v2.9l-7.5-2.9
			l-0.2-3.4L92.2,198L92.2,198z M92.2,216.4v2.9h-7.5v-2.9H92.2L92.2,216.4z M92.2,226.3v3.6l-2.7,1.7h2.7v2.9l-7.5,0.3v-3.2
			L92.2,226.3L92.2,226.3z M92.2,240.6v2.9h-7.5v-2.9H92.2L92.2,240.6z M92.2,261.1v2.9h-7.5v-15.4h2.7v12.6H92.2L92.2,261.1z
			 M92.2,280.7v3.1h-0.2c-1.9,0.7-3.4,1.2-4.8,1.7c1.7,0.3,3.1,0.8,4.6,1.2l0.5,0.3v2.9l-7.5-2.9v-3.2L92.2,280.7L92.2,280.7z
			 M92.2,299.3v2.9h-7.5v-2.9H92.2L92.2,299.3z M92.2,323.7v3.4c-0.7-0.2-1.5-0.7-2.2-1c-1.9-0.9-3.1-2.1-4.1-3.8
			c-0.9-1.7-1.4-3.6-1.4-5.6c0-2.4,0.5-4.4,1.7-6.1c1.2-1.5,2.9-2.6,5.1-3.1l0.7,2.9c-1.7,0.5-2.9,1.5-3.6,2.4c-1,1-1.2,2.2-1.2,3.9
			c0,1.7,0.5,3.1,1.2,4.3c1,1.2,1.9,2.2,3.4,2.7C91.9,323.7,92.2,323.7,92.2,323.7L92.2,323.7z M92.2,332.2v2.9h-7.2v-2.9H92.2
			L92.2,332.2z M92.2,342.3v3.6l-2.4,1.4h2.4v2.9h-7.2v-2.9L92.2,342.3L92.2,342.3z M92.2,369.2v3.1h-7.2v-16.7h2.6v13.5H92.2
			L92.2,369.2z M92.2,377.6v3.1c-0.5,0.3-1,0.3-1.5,0.7c-1.2,0.7-2.2,1.7-2.4,2.9c-0.5,0.7-0.5,2-0.5,3.9v4.8h4.4v3.2h-7.2v-8
			c0-1.9,0.2-3.2,0.5-4.1c0.2-1.5,0.7-2.4,1.4-3.4c1.2-1.2,2.4-2.2,4.1-2.9C91.4,377.8,91.7,377.6,92.2,377.6L92.2,377.6z
			 M92.2,401.8v2.9h-7.2v-2.9H92.2L92.2,401.8z M92.2,411.9v3.6L90,417h2.2v2.9h-7v-3.1L92.2,411.9L92.2,411.9z M92.2,438.8v3.2h-7
			v-16.7h2.7v13.5H92.2L92.2,438.8z M92.2,453v3.2h-4.4v7.7h-2.7v-18.3h2.7v7.7L92.2,453L92.2,453z M92.2,467.8v2.9h-7v-2.9H92.2
			L92.2,467.8z M92.2,477.9v3.6l-1.9,1.4h1.9v2.9h-7v-3.2L92.2,477.9L92.2,477.9z M92.2,491.7v3.2h-7v-3.2H92.2L92.2,491.7z
			 M92.2,500.6v3.2c-0.2,0-0.2,0-0.5,0c-1.2,0-2.2,0.2-2.9,1.2c-0.5,0.7-1,1.9-1,3.6v7.2h4.4v3.1h-6.8v-10.2c-0.3-2.1,0-3.6,0.5-4.8
			c0.5-1,1.2-1.9,2.2-2.4c1-0.7,2.2-0.9,3.6-0.9C91.7,500.6,91.9,500.6,92.2,500.6L92.2,500.6z M92.2,537.9v3.1h-6.8v-16.7h2.6v13.5
			H92.2L92.2,537.9z M92.2,545.4v3.1l0,0c-1,0-1.7,0.3-2.4,0.7c-0.7,0.5-1.2,1.2-1.5,2c0,0.5-0.2,1.4-0.2,2.9v6h4.1v2.9h-6.8v-8.7
			c0-1.5,0-2.7,0.2-3.4c0.3-1.2,0.5-2.1,1-2.9c0.5-0.8,1.4-1.5,2.2-1.9C89.8,545.6,91,545.4,92.2,545.4L92.2,545.4L92.2,545.4z
			 M92.2,568.6v3.2h-6.8v-3.2H92.2L92.2,568.6z M92.2,583.8v2.9h-6.8v-2.9H92.2z"/>
		<path class="st0" d="M136.9,927.5l-19.3,7.1v-7.1l10.9-3.6l-10.9-3.6v-6.5l19.3,6.8V927.5L136.9,927.5z M117.6,892.2v-6.5h19.3
			v6.5H117.6L117.6,892.2z M117.6,866.8v-6.8c0.7,0.2,1.7,0.2,2.6,0.2c3.9,0,6.8-0.9,8.7-2.6c1.7-1.7,2.6-3.9,2.6-6.8
			c0-1.2-0.2-2.6-0.7-4.1c-0.5-1.5-1.2-2.4-1.9-3.6h-4.1v7.7h-5.6v-14.2h13c1.2,1.5,2.4,3.4,3.4,6c1.2,2.7,1.7,5.1,1.7,8
			c0,3.4-0.7,6.3-2.2,8.7c-1.4,2.7-3.4,4.6-6,5.8c-2.6,1.2-5.6,1.9-8.7,1.9C119.5,867.1,118.5,867.1,117.6,866.8L117.6,866.8z
			 M117.6,817.3v-6.5h19.1v6.5H117.6L117.6,817.3z M117.6,790.9v-6.8h13.5V768l5.6-0.2v22.9L117.6,790.9L117.6,790.9z M117.6,745.7
			v-6.5l6,2.2v-9l-6,2.2v-6.8l18.8-7.5v7l-7.2,2.9v13l7.2,2.7v7L117.6,745.7L117.6,745.7z M117.6,703.4v-6.5h13.3v-5.1
			c0-1.6,0-3.1-0.2-3.8c-0.2-1.2-0.7-2-1.4-2.7c-0.5-0.7-1.7-1.2-3.1-1.6c-1.5-0.5-3.4-0.7-6-0.7c-0.7,0-1.7,0-2.4,0.2v-7
			c1,0,1.9,0,2.9,0c2.7,0,4.8,0.2,6.8,1c2.4,0.7,4.3,1.9,5.8,3.4c1.2,1.2,1.9,2.9,2.7,4.8c0.5,1.5,0.7,3.4,0.7,5.9v12.3H117.6
			L117.6,703.4z M117.6,658.5v-6.8c0.7,0.2,1.4,0.2,2.4,0.2c3.6,0,6.5-1,8.5-2.6c1.9-1.7,2.7-3.9,2.7-6.6c0-2.6-1-4.8-2.7-6.5
			c-1.9-1.4-4.8-2.4-8.7-2.4c-0.7,0-1.4,0-2.2,0.3v-7c0.7,0,1.7,0,2.4,0c5.3,0,9.4,1.4,12.3,4.4c2.9,2.7,4.6,6.5,4.6,11.3
			c0,4.9-1.5,8.7-4.6,11.6c-2.9,2.9-7,4.3-12.1,4.3C119.3,658.7,118.3,658.7,117.6,658.5z M117.6,934.5l-13.1,4.8l-0.3-7.3l13.3-4.6
			V934.5L117.6,934.5z M117.6,920.2l-13.3-4.3v-7l13.3,4.8V920.2L117.6,920.2z M117.6,627v7c-2.7,0.2-4.6,1-6.1,2.2
			c-1.9,1.7-2.6,3.9-2.6,6.5c0,2.9,0.7,5.1,2.6,6.6c1.5,1.4,3.4,2.2,6.1,2.4v6.8c-2.2-0.2-4.1-0.5-5.8-1.2c-1.5-0.7-3.2-2-4.4-3.2
			c-1.5-1.2-2.4-2.7-2.9-4.1c-1-2.2-1.5-4.4-1.5-7c0-4.8,1.5-8.7,4.6-11.6C110.1,629,113.4,627.5,117.6,627L117.6,627z M117.6,676.1
			v7c-1.2,0-2.4,0.2-3.4,0.5c-1.2,0.5-2.2,1-3.1,1.9c-0.7,0.7-1.2,1.7-1.4,2.9c-0.3,1-0.3,2.9-0.3,5.6v2.9h8.2v6.5h-13.8v-12.1
			c0-2.7,0.2-4.6,0.7-6.1c0.5-1.9,1.4-3.6,2.9-5c1.4-1.2,3.1-2.4,5.3-3.2C114.2,676.6,115.6,676.3,117.6,676.1L117.6,676.1z
			 M117.6,727.8v6.8l-6.1,2.4l6.1,2.2v6.5l-13.5-5.3l-0.2-7L117.6,727.8L117.6,727.8z M117.6,784.1v6.8h-13.3v-6.8H117.6
			L117.6,784.1z M117.6,810.7v6.5H104v-6.5H117.6L117.6,810.7z M117.6,860.1v6.8c-2.2-0.2-4.4-0.8-6.3-1.9c-2.7-1.5-4.6-3.4-6-6.1
			c-1-2.2-1.7-4.8-1.7-8c0-3.9,1-7,2.6-9.4c1.7-2.2,3.9-3.6,7-4.3l1.2,6.5c-1.7,0.5-2.9,1.2-3.9,2.7c-0.9,1.2-1.2,2.7-1.2,4.6
			c0,2.9,0.7,5.3,2.6,7C113.4,859.1,115.1,859.8,117.6,860.1L117.6,860.1z M117.6,885.7v6.5h-13.3v-6.5H117.6z"/>
		<path class="st0" d="M76.7,940.3C76,634.8,76,629.1,76,629l5.2-5.3l5.4,5.4l0.7,311.2L76.7,940.3z"/>
		<path class="st0" d="M149.5,940.6c-0.7-306.3-0.7-311.4-0.7-311.5l5.3-5.3c0.1,0,0.2,0,0.3,0c5,0,5,0.7,5.2,44.5l0.6,272.3
			L149.5,940.6z"/>
		<path class="st0" d="M1047.9,940.3v-4.1l0,0c1.9,0,3.6-0.7,5.1-2.1c1.5-1.7,2.2-3.4,2.2-5.6c0-1.9-0.7-3.9-2.2-5.3
			c-1.4-1.4-3.1-2.2-5.1-2.2l0,0v-4.3l0,0c1.4,0,3.1,0.5,4.6,1c1.4,0.7,2.6,1.5,3.9,2.7c1.2,1.2,1.9,2.4,2.7,3.9
			c0.5,1.5,1,2.9,1,4.4c0,1.7-0.5,3.1-1,4.6c-0.7,1.5-1.7,2.9-2.7,3.9c-1.2,1.2-2.4,1.9-3.9,2.6
			C1051,940.1,1049.6,940.3,1047.9,940.3L1047.9,940.3L1047.9,940.3z M1062.6,938.4v-4.8c1.4,1,2.6,1.7,4.1,2.2
			c1.2,0.4,2.4,0.7,3.4,0.7c1.2,0,2.2-0.3,2.7-0.7c0.7-0.5,1-1,1-1.9c0-0.7-1.2-1.9-3.6-3.1c-0.7-0.5-1.2-0.7-1.7-1
			c-2.2-1-3.6-2-4.4-3.2c-0.7-1-1.2-2.2-1.2-3.6c0-2,0.7-3.4,2.2-4.6c1.2-1,3.2-1.7,5.6-1.7c1.2,0,2.4,0.2,3.6,0.5
			c1.2,0.2,2.4,0.7,3.6,1.5v4.4c-1.4-0.7-2.9-1.2-3.9-1.7c-1.2-0.3-2.4-0.5-3.4-0.5c-1,0-1.7,0.2-2.2,0.5c-0.5,0.2-0.7,0.7-0.7,1.4
			c0,1.2,1.4,2.4,4.6,4.2l0.5,0.2c2.4,1.2,4.1,2.2,4.8,3.2c0.7,1,1.2,2.1,1.2,3.6c0,1.9-0.7,3.6-2.2,4.8c-1.7,1.2-3.6,1.7-6.1,1.7
			c-1.4,0-2.9,0-4.1-0.5C1065.3,939.5,1063.8,939.1,1062.6,938.4z M1047.9,916.6v4.3c-2.2,0-3.9,0.7-5.3,2.2
			c-1.5,1.4-2.2,3.4-2.2,5.3c0,2.2,0.7,4.1,2.2,5.6c1.5,1.4,3.1,2.1,5.3,2.1v4.1c-3.4,0-6.3-1-8.7-3.4c-2.2-2.2-3.4-5.1-3.4-8.5
			c0-3.2,1.2-6,3.4-8.2C1041.6,917.8,1044.5,916.6,1047.9,916.6L1047.9,916.6z M978.7,951.4v-3.8c1.9,0,3.6-0.2,4.8-1
			c1.2-0.5,1.7-1.2,1.7-2.2c0-1-0.7-1.9-1.9-2.4c-1.2-0.5-2.7-0.7-4.6-0.7v-4.4c0.5,0,1.4,0.2,2.4,0.5c1,0.3,1.4,0.3,1.9,0.5
			c2.4,0.5,3.9,1.2,5.1,2.2c1.2,1.2,1.7,2.4,1.7,4.1c0,2.4-1,4.1-2.9,5.3C985,950.7,982.4,951.4,978.7,951.4L978.7,951.4z
			 M978.7,933.3v-3.6c1.4,0,2.4-0.5,3.4-1.2c1-0.7,1.2-1.7,1.2-3.2c0-1.2-0.2-2.1-1.2-3.1c-1-0.7-2.2-1.2-3.4-1.2v-3.6
			c0.5-0.2,1.2-0.2,1.9-0.2h9.2v3.8H986c0.5,0.5,1,1.2,1.2,2c0.5,1,0.5,1.7,0.5,2.7c0,1.9-0.5,3.4-1.7,4.8c-1.2,1.5-2.7,2.2-4.6,2.4
			c-0.5,0.2-1,0.2-1.7,0.5C979.2,933.3,979,933.3,978.7,933.3L978.7,933.3z M1008,937.1c-1.2,1-2.2,2-3.4,2.4
			c-1.2,0.5-2.4,0.8-3.6,0.8c-2.4,0-4.4-0.8-5.8-2.1c-1.4-1.5-2.2-3.4-2.2-5.9v-15.2h4.6v14c0,1.9,0.2,3.1,1.2,4.1
			c0.8,1,2,1.2,3.6,1.2c1,0,2.2-0.3,2.9-0.5c1-0.5,1.9-1.2,2.7-2.4v-16.4h4.6v22.7h-4.6V937.1L1008,937.1z M1018.4,939.8v-22.7h4.6
			v5.1c1.2-1.9,2.2-3.4,3.4-4.1c1-1,2-1.2,3.1-1.2c1,0,1.7,0,2.7,0.5c0.7,0.3,1.7,1,2.7,1.7l-2.4,4.1c-1-0.7-1.4-1.2-2.2-1.4
			c-0.7-0.2-1.4-0.5-2.2-0.5c-1.2,0-2.4,0.5-3.1,1.4c-1,1.2-1.7,2.6-1.9,4.4v12.8H1018.4z M978.7,917.3v3.6h-0.2
			c-1.2,0-2.4,0.5-3.4,1.2c-0.7,1-1.2,1.9-1.2,3.1c0,1.5,0.5,2.4,1.2,3.2c0.7,0.7,1.9,1.2,3.4,1.2h0.2v3.6c-1.9,0.5-2.9,1-2.9,1.7
			c0,0.7,1,1.2,2.9,1.9v4.4c-0.5,0-1,0-1.5,0c-1.7,0-2.9,0.2-3.9,0.7c-1,0.5-1.4,1.2-1.4,2.2c0,1.2,0.5,1.9,1.7,2.4
			c1,0.8,2.7,1,4.8,1h0.2v3.8h-0.2c-3.6,0-6.3-0.7-8.2-1.7c-2-1.2-2.7-2.9-2.7-5.4c0-1.4,0.5-2.9,1.5-3.8c1.2-1,2.9-1.7,5.1-2.2
			c-1-0.2-1.7-0.7-1.9-1.2c-0.5-0.4-0.7-1-0.7-1.4c0-0.7,0.2-1.2,0.7-1.7c0.5-0.5,1.5-1,2.4-1.5c-1.7-0.5-2.9-1.2-3.9-2.4
			c-1-1.2-1.5-2.9-1.5-4.6c0-2.7,1-4.9,2.9-6.3C973.7,918.1,975.8,917.6,978.7,917.3L978.7,917.3z M955.3,940.3v-4.1
			c0.5,0,1,0,1.2,0c1.5,0,3.2-0.2,4.6-0.7c1.4-0.7,3.1-1.4,4.8-2.4v4.6c-1.5,0.7-3.2,1.7-4.6,2.2c-1.7,0.5-3.4,0.7-5.1,0.7
			C956,940.5,955.8,940.3,955.3,940.3L955.3,940.3z M955.3,929.4v-3.4h6c-0.2-1.7-0.7-2.9-1.7-3.9c-1.2-1-2.4-1.5-4.1-1.5h-0.3v-3.9
			h0.5c3.2,0,5.8,1,7.8,3.2c1.9,2.2,2.9,5.1,2.9,8.7v0.7H955.3z M955.3,916.8v3.9c-1.4,0-2.9,0.5-3.9,1.2c-1.2,1-1.7,2.4-2.2,4.1h6
			v3.4h-6c0.2,2.2,1,3.9,2.2,5.1c1,0.9,2.4,1.4,3.9,1.6v4.1c-3.2,0-5.6-1.2-7.5-3.2c-2.2-2.1-3.4-5.3-3.4-8.9c0-3.4,1.2-6.3,3.2-8.2
			C949.5,917.8,952.1,916.8,955.3,916.8L955.3,916.8z M894.9,940.3v-4.1c0.3,0,0.7,0,1.2,0c1.5,0,2.9-0.2,4.6-0.7
			c1.4-0.7,3.1-1.4,4.8-2.4v4.6c-1.7,0.7-3.2,1.7-4.8,2.2c-1.4,0.5-3.1,0.7-4.8,0.7C895.3,940.5,895.1,940.3,894.9,940.3
			L894.9,940.3z M894.9,929.4v-3.4h6c-0.2-1.7-0.7-2.9-1.9-3.9c-1-1-2.4-1.5-3.9-1.5h-0.3v-3.9h0.3c3.4,0,5.8,1,7.7,3.2
			c1.9,2.2,2.9,5.1,2.9,8.7v0.7H894.9L894.9,929.4z M921.7,937.1v-6.5c1.7,1.9,3.1,3.1,4.6,3.9c1.4,0.9,2.9,1.2,4.6,1.2
			c1.7,0,2.9-0.3,3.9-1.2c1-0.7,1.4-1.7,1.4-3.2c0-1.2-0.2-2.2-1-2.9c-0.5-1-2.2-2.2-4.6-3.6c-3.9-2.7-6.5-4.6-7.5-5.8
			c-1-1.5-1.5-3.1-1.5-5.1c0-2.6,1-4.8,2.9-6.5c1.9-1.7,4.4-2.6,7.2-2.6c1.5,0,2.7,0.2,3.9,0.7c1.4,0.2,2.6,1,4.1,1.7v5.5
			c-1.7-1.2-2.9-1.9-4.3-2.6c-1.2-0.5-2.4-0.7-3.9-0.7c-1.4,0-2.6,0.3-3.6,1.2c-0.9,0.8-1.4,1.7-1.4,2.9c0,1.7,1.9,3.8,6,6.3
			l0.7,0.5c3.4,1.9,5.6,3.9,6.5,5.3c1,1.7,1.5,3.6,1.5,5.8c0,2.7-1,4.8-2.9,6.5c-1.9,1.7-4.3,2.7-7.2,2.7c-2,0-3.6-0.2-5.1-0.7
			C924.6,939.3,923.2,938.4,921.7,937.1z M894.9,916.8v3.9c-1.7,0-2.9,0.5-4.1,1.2c-1,1-1.7,2.4-2,4.1h6v3.4h-6
			c0,2.2,0.7,3.9,2.2,5.1c0.9,0.9,2.2,1.4,3.8,1.6v4.1c-3.2,0-5.8-1.2-7.7-3.2c-2.2-2.1-3.2-5.3-3.2-8.9c0-3.4,1-6.3,3.2-8.2
			C889.1,917.8,891.7,916.8,894.9,916.8L894.9,916.8z M869,940.3v-3.8c0.5,0,0.7,0,1.2,0c1,0,1.7,0,2.7-0.3c0.7-0.4,1.4-0.7,2.2-1.2
			v-12.8c-0.7-0.7-1.4-1-2.2-1.2c-1-0.2-1.7-0.5-2.7-0.5c-0.5,0-0.7,0-1.2,0.2v-4.1h0.2c1,0,2.2,0.2,3.1,0.5c1,0.2,1.7,0.7,2.7,1.5
			v-13.1h4.6v34.3H875v-1.2c-0.7,0.8-1.7,1-2.7,1.5c-1,0.2-1.9,0.2-3.1,0.2H869z M869,916.6v4.1c-1.7,0.2-3.2,0.8-4.1,1.9
			c-1.4,1.5-1.9,3.4-1.9,5.8c0,2.4,0.5,4.4,1.9,5.8c1,1.2,2.4,1.9,4.1,2.2v3.8c-3.2,0-5.8-1-8-3.2c-1.9-2.1-3.1-5.1-3.1-8.7
			c0-3.4,1.2-6.3,3.1-8.5C863.2,917.8,865.9,916.8,869,916.6L869,916.6z M832,940.1v-3.1c0.5,0,1.2-0.2,1.7-0.2
			c0.7-0.5,1.5-0.8,2.2-1.5v-6.5c-1.4,0.5-2.9,1-3.9,1.5V927l3.9-1.2c0.2-0.2,0.2-0.2,0.2-0.5c0,0,0-0.2,0-0.4c0-1.4-0.5-2.4-1-2.9
			c-0.7-0.7-1.7-1-3.2-1v-4.1h0.2c2.9,0,5.1,0.5,6.5,2c1.2,1.2,1.9,3.1,1.9,6v9.7c0,0.7,0,1.4,0.2,1.6c0,0.5,0.2,0.5,0.7,0.5
			c0.2,0,0.5,0,0.7-0.2c0.5,0,1-0.5,1.7-1v2.9c-1,0.5-1.7,1.2-2.7,1.5c-0.7,0.2-1.7,0.5-2.6,0.5c-0.7,0-1.5-0.2-1.9-0.5
			c-0.2-0.5-0.7-1-0.7-1.7c-1.2,0.7-2.2,1.2-3.1,1.7C832.5,939.8,832.3,940.1,832,940.1z M832,916.8v4.1h-0.2
			c-1.2,0-2.7,0.3-3.9,0.7c-1.5,0.5-2.7,1.4-4.1,2.4v-4.6c1.2-0.9,2.4-1.4,3.9-1.9C829.1,917.1,830.6,916.8,832,916.8L832,916.8z
			 M832,927v3.2c-1,0.2-1.7,0.7-2.4,1.2c-1,0.7-1.7,1.7-1.7,2.7c0,1,0.2,1.7,1,2.1c0.5,0.5,1.5,0.8,2.4,0.8c0.2,0,0.5,0,0.7,0v3.1
			c-0.7,0.2-1.7,0.2-2.4,0.2c-2,0-3.6-0.5-4.8-1.5c-1.2-1-1.7-2.4-1.7-4.1c0-1.4,0.7-2.9,1.9-4.1c1.2-1.2,3.2-2.2,5.6-3.2L832,927
			L832,927z M774.3,940.1v-3.1c0.7,0,1.2-0.2,1.9-0.2c0.7-0.5,1.4-0.8,2.2-1.5v-6.5c-1.7,0.5-2.9,1-4.1,1.5V927l4.1-1.2
			c0-0.2,0-0.2,0-0.5c0,0,0-0.2,0-0.4c0-1.4-0.2-2.4-1-2.9c-0.5-0.7-1.7-1-3.1-1v-4.1h0.5c2.9,0,5.1,0.5,6.3,2
			c1.4,1.2,2.2,3.1,2.2,6v9.7c0,0.7,0,1.4,0,1.6c0.2,0.5,0.5,0.5,0.7,0.5c0.2,0,0.7,0,1-0.2c0.2,0,0.7-0.5,1.4-1v2.9
			c-0.7,0.5-1.7,1.2-2.4,1.5c-1,0.2-1.7,0.5-2.6,0.5c-1,0-1.5-0.2-1.9-0.5c-0.5-0.5-0.7-1-0.7-1.7c-1.2,0.7-2.4,1.2-3.4,1.7
			C775,939.8,774.7,940.1,774.3,940.1L774.3,940.1z M789,939.8v-22.7h4.6v2.9c1.2-1.2,2.2-1.9,3.4-2.4c1.2-0.5,2.4-0.7,3.6-0.7
			c2.4,0,4.4,0.7,5.8,2.2c1.5,1.5,2.2,3.4,2.2,5.8v15H804v-13.8c0-2-0.5-3.1-1.2-4.1c-0.7-1-1.9-1.2-3.6-1.2c-1.2,0-2.2,0.2-2.9,0.5
			c-1,0.5-2,1.2-2.7,2.4v16.2H789L789,939.8z M805.9,907.4c-0.5,1.5-1,2.7-1.9,3.4c-0.7,1-1.7,1.2-2.9,1.2c-0.2,0-0.5,0-1,0
			c-0.2,0-0.5,0-0.7-0.2l-1.9-0.5c-0.3-0.2-0.5-0.2-0.7-0.2c-0.2,0-0.2,0-0.5,0c-0.7,0-1.2,0-1.5,0.2c-0.5,0.2-0.7,0.7-1,1.2h-2.2
			c0.3-1.4,1-2.7,1.7-3.4c1-0.7,2-1.2,3.2-1.2c0.2,0,0.5,0,0.7,0c0.3,0.2,0.5,0.2,0.7,0.2l2,0.7c0.2,0,0.5,0.2,0.7,0.2
			c0.3,0,0.5,0,0.7,0c0.7,0,1.2-0.2,1.5-0.5c0.5-0.2,0.7-0.7,0.9-1.2H805.9L805.9,907.4z M814.4,939.8v-22.7h4.6v22.7H814.4
			L814.4,939.8z M813.2,913.9l5.3-8.5h4.4l-7,8.5H813.2z M774.3,916.8v4.1l0,0c-1.5,0-2.7,0.3-4.1,0.7c-1.2,0.5-2.7,1.4-3.8,2.4
			v-4.6c1-0.9,2.4-1.4,3.8-1.9C771.4,917.1,772.8,916.8,774.3,916.8L774.3,916.8z M774.3,927v3.2c-1,0.2-1.7,0.7-2.2,1.2
			c-1.2,0.7-1.7,1.7-1.7,2.7c0,1,0.2,1.7,0.7,2.1c0.7,0.5,1.5,0.8,2.7,0.8c0.3,0,0.5,0,0.5,0v3.1c-0.7,0.2-1.5,0.2-2.2,0.2
			c-2.2,0-3.6-0.5-4.8-1.5c-1.2-1-1.7-2.4-1.7-4.1c0-1.4,0.5-2.9,1.7-4.1c1.4-1.2,3.1-2.2,5.8-3.2L774.3,927L774.3,927z
			 M751.8,940.3v-3.8c1.7-0.3,3.1-1,4.1-1.9c1.4-1.5,2.2-3.4,2.2-6.1c0-2.4-0.7-4.4-2.2-5.8c-1-0.9-2.4-1.7-4.1-1.9v-4.1
			c3.4,0.2,5.8,1.2,8,3.4c1.9,2.2,3.1,5.1,3.1,8.5c0,3.6-1.2,6.5-3.1,8.7C757.6,939.3,755.2,940.3,751.8,940.3z M751.8,916.6v4.1
			c-0.2,0-0.7,0-1.2,0c-1,0-1.7,0-2.4,0.2c-1,0.3-1.7,0.7-2.4,1.2V935c0.7,0.5,1.5,0.9,2.4,1.2c0.7,0.3,1.4,0.3,2.4,0.3
			c0.5,0,1,0,1.2,0v3.8l0,0c-1.2,0-2.4,0-3.4-0.2c-1-0.2-1.7-0.7-2.7-1.5v12.8h-4.6v-34.3h4.6v1.5c1-0.7,1.9-1.2,2.7-1.5
			C749.4,916.8,750.6,916.6,751.8,916.6L751.8,916.6L751.8,916.6z M684.6,940.3v-4.1l0,0c2.2,0,3.9-0.7,5.3-2.1
			c1.4-1.7,2.2-3.4,2.2-5.6c0-1.9-0.7-3.9-2.2-5.3c-1.4-1.4-3.1-2.2-5.3-2.2l0,0v-4.3h0.2c1.5,0,3.2,0.5,4.6,1
			c1.5,0.7,2.7,1.5,3.9,2.7c1.2,1.2,1.9,2.4,2.7,3.9c0.5,1.5,0.7,2.9,0.7,4.4c0,1.7-0.2,3.1-0.7,4.6c-0.7,1.5-1.7,2.9-2.7,3.9
			c-1.2,1.2-2.4,1.9-3.9,2.6c-1.4,0.5-3.1,0.8-4.6,0.8H684.6L684.6,940.3z M701,939.8v-22.7h4.6v2.9c1.2-1.2,2.2-1.9,3.4-2.4
			c1.2-0.5,2.4-0.7,3.6-0.7c1.7,0,3.2,0.3,4.1,1c1.2,0.5,2.2,1.4,2.9,2.9c1.4-1.4,2.7-2.4,3.9-2.9c1.4-0.7,2.7-1,4.1-1
			c2.4,0,4.4,0.7,5.8,2.2c1.5,1.5,2.2,3.4,2.2,5.8v15H731v-13.8c0-2-0.5-3.1-1.2-4.1c-0.7-1-1.9-1.2-3.6-1.2c-1.2,0-2.2,0.2-3.1,0.5
			c-0.7,0.5-1.7,1.2-2.4,2.4v16.2H716v-13.8c0-2-0.2-3.1-1.2-4.1c-0.7-1-1.9-1.2-3.6-1.2c-1,0-2.2,0.2-2.9,0.5
			c-1,0.5-1.7,1.2-2.7,2.4v16.2H701z M684.6,916.6v4.3c-2,0-3.7,0.7-5.1,2.2c-1.5,1.4-2.2,3.4-2.2,5.3c0,2.2,0.7,4.1,2.2,5.6
			c1.4,1.4,3.1,2.1,5.1,2.1v4.1c-3.1,0-6.1-1-8.5-3.4c-2.4-2.2-3.4-5.1-3.4-8.5c0-3.2,1-6,3.4-8.2
			C678.5,917.8,681.5,916.6,684.6,916.6L684.6,916.6z M582.4,929.9v-4.6h5.3l-5.3-12v-7.8h1.7l15.2,34.3h-5.1l-4.3-9.9H582.4
			L582.4,929.9z M601.4,937.4c0-0.9,0.3-1.5,1-2.2c0.5-0.5,1.2-0.7,2.2-0.7c0.7,0,1.5,0.2,1.9,0.7c0.7,0.7,0.9,1.2,0.9,2.2
			c0,0.8-0.2,1.4-0.9,2.2c-0.5,0.5-1.2,0.8-1.9,0.8c-1,0-1.7-0.2-2.2-0.8C601.7,938.8,601.4,938.2,601.4,937.4L601.4,937.4z
			 M616.2,940.3c-0.7-0.2-1.2-0.8-1.4-1.2c-0.5-0.5-0.7-0.9-0.7-1.7c0-0.9,0.5-1.5,1-2.2c0.5-0.5,1.2-0.7,1.9-0.7c1,0,2,0.5,2.4,1.2
			c0.7,1,1,1.9,1,3.4c0,1.7-0.5,3.4-1.4,4.6c-1.2,1.2-2.7,2.2-4.6,2.9v-1c0.7-0.5,1.2-1.2,1.4-2c0.5-0.7,0.5-1.7,0.5-2.7V940.3
			L616.2,940.3z M669.4,931.9v5.5c-2.2,1-4.1,1.7-6.3,2.4c-2.2,0.5-4.1,0.7-6.3,0.7c-1.9,0-3.9-0.2-5.6-0.7
			c-1.7-0.5-3.4-1.5-5.1-2.4c-2.7-1.7-4.6-3.6-6-6.3c-1.2-2.7-1.9-5.6-1.9-8.5c0-2.4,0.5-4.5,1.2-6.7c1-2.2,2.4-4.1,4.1-5.8
			c1.7-1.7,3.9-2.9,6.1-3.9c2.4-0.7,4.8-1.2,7.7-1.2c1.9,0,3.9,0.3,5.8,0.7c1.9,0.3,3.9,0.9,5.8,1.9v5.3c-2.2-1.2-4.1-1.9-6-2.7
			c-1.9-0.5-3.9-0.7-5.6-0.7c-4.1,0-7.5,1.2-9.9,3.6c-2.7,2.6-4.1,5.8-4.1,9.4c0,3.9,1.4,7,3.8,9.4c2.6,2.4,5.8,3.9,9.9,3.9
			c1.9,0,3.9-0.5,6-1.2C665,934.3,667.2,933.1,669.4,931.9z M582.4,905.5v7.8V913l-5.3,12.3h5.3v4.6h-7.3l-4.4,9.9h-5.1l15-34.3
			H582.4L582.4,905.5z M502.6,929.9v-4.6h5.3l-5.3-12v-7.8h1.7l15.2,34.3h-5.1l-4.6-9.9H502.6L502.6,929.9z M533,937.1v-6.5
			c1.5,1.9,2.9,3.1,4.4,3.9c1.4,0.9,2.9,1.2,4.6,1.2c1.7,0,3.1-0.3,4.1-1.2c1-0.7,1.4-1.7,1.4-3.2c0-1.2-0.5-2.2-1-2.9
			c-0.7-1-2.4-2.2-4.8-3.6c-3.9-2.7-6.3-4.6-7.2-5.8c-1.2-1.5-1.7-3.1-1.7-5.1c0-2.6,1-4.8,2.9-6.5c2-1.7,4.4-2.6,7.5-2.6
			c1.2,0,2.4,0.2,3.9,0.7c1,0.2,2.2,1,3.6,1.7v5.5c-1.4-1.2-2.7-1.9-3.9-2.6c-1.4-0.5-2.6-0.7-3.8-0.7c-1.7,0-2.9,0.3-3.9,1.2
			c-1,0.8-1.4,1.7-1.4,2.9c0,1.7,1.9,3.8,6,6.3l0.7,0.5c3.4,1.9,5.3,3.9,6.3,5.3c1,1.7,1.4,3.6,1.4,5.8c0,2.7-1,4.8-2.9,6.5
			c-1.5,1.7-3.9,2.7-7,2.7c-1.7,0-3.4-0.2-5.1-0.7C535.7,939.3,534.2,938.4,533,937.1L533,937.1z M557.4,937.4
			c0-0.9,0.2-1.5,0.7-2.2c0.7-0.5,1.4-0.7,2.2-0.7c1,0,1.5,0.2,2.2,0.7c0.5,0.7,0.7,1.2,0.7,2.2c0,0.8-0.2,1.4-0.7,2.2
			c-0.7,0.5-1.2,0.8-2.2,0.8c-0.7,0-1.4-0.2-2.2-0.8C557.7,938.8,557.4,938.2,557.4,937.4z M502.6,905.5v7.8l-0.2-0.3l-5.1,12.3h5.3
			v4.6h-7.2l-4.6,9.9h-3.6h1.4l-1.4-2v-1.2l13.5-31.2H502.6z M487.1,936.7v1.2l-7-10.6c-0.7-1.2-1.5-2-2-2.4c-0.5-0.7-1-1-1.7-1.4
			c2.4-0.5,3.9-1.7,5.1-2.9c1-1.5,1.4-3.4,1.4-5.6c0-2.9-1-5.3-2.9-7c-1.7-1.4-4.4-2.4-7.7-2.4v4.1c1.7,0.2,3.1,0.7,3.9,1.4
			c1.2,0.7,1.7,2.2,1.7,3.8c0,1.9-0.5,3.4-1.7,4.1c-1,0.7-2.2,1.2-3.9,1.2v5.6c1.2,0.7,2.7,2.4,4.4,5.1l5.8,8.9h4.6h-1.2
			L487.1,936.7z M472.4,905.5v4.1c-0.2,0-0.7,0-1.2,0h-4.1v10.9h4.1c0.5,0,1,0,1.2-0.3v5.6l0,0c-1-1-2.4-1.2-3.9-1.2h-1.5v15.2H462
			v-34.3h10.2H472.4L472.4,905.5z M438.3,940.5v-4.6c1.7,0,3.4-0.5,5.1-0.9c1.5-0.7,2.9-1.7,4.1-2.9c1.2-1.2,2.2-2.7,2.9-4.4
			c0.7-1.4,1-3.1,1-5.1c0-1.7-0.2-3.4-1-4.8c-0.7-1.7-1.7-3.2-2.9-4.4c-1.2-1.2-2.6-2.2-4.1-2.9c-1.7-0.7-3.4-0.9-5.1-0.9V905
			c2.4,0,4.8,0.5,7,1.2c2.2,1,4.3,2.2,6,3.9c1.7,1.7,3.1,3.6,3.9,5.8c1,2.2,1.4,4.6,1.4,7c0,2.4-0.5,4.6-1.4,6.8
			c-1,2.2-2.2,4.1-3.9,5.8c-1.9,1.7-3.9,2.9-6,3.9C443.1,940.1,440.7,940.5,438.3,940.5z M438.3,905v4.6l0,0c-1.7,0-3.4,0.2-5.1,0.9
			c-1.5,0.8-2.9,1.7-4.4,2.9c-1.2,1.2-2.2,2.6-2.7,4.1c-0.7,1.7-1,3.4-1,5.1c0,2,0.2,3.7,1,5.1c0.5,1.7,1.5,3.2,2.7,4.4
			c1.2,1.2,2.6,2.2,4.4,2.7c1.4,0.7,3.1,1.2,5.1,1.2l0,0v4.6l0,0c-2.4,0-4.8-0.5-7-1.4c-2.4-0.7-4.4-2.2-6-3.6
			c-1.7-1.9-3.2-3.9-4.1-6.1c-0.7-2.2-1.2-4.3-1.2-6.8c0-2.4,0.5-4.5,1.4-6.7c0.7-2.2,2.2-4.1,3.9-5.8c1.7-1.7,3.9-2.9,6-3.9
			C433.4,905.5,435.9,905,438.3,905L438.3,905L438.3,905z M310.4,925.8v-5.6c1.7,0,2.9-0.5,3.9-1.2c1-0.7,1.7-2.2,1.7-4.1
			c0-1.7-0.5-3.1-1.7-3.8c-1-0.8-2.2-1.2-3.9-1.4v-4.1c3.4,0,5.8,1,7.7,2.4c1.9,1.7,2.9,4.1,2.9,7c0,2.2-0.5,4.1-1.7,5.6
			c-1,1.2-2.7,2.4-4.8,2.9c0.5,0.5,1.2,0.7,1.7,1.4c0.5,0.4,1.2,1.2,1.9,2.4l8.5,12.6h-6l-6-8.9
			C312.8,928.2,311.6,926.5,310.4,925.8L310.4,925.8z M328.6,939.8v-34.3h20.7v4.4h-15.9v10.4h15.5v4.6h-15.5v10.6h16.4v4.4H328.6
			L328.6,939.8z M366.5,940.1l-15.2-34.6h5.1l10.9,24.7l10.9-24.7h5.1l-15.5,34.6H366.5L366.5,940.1z M386.1,939.8v-34.3h4.8v34.3
			H386.1L386.1,939.8z M396.7,937.1v-6.5c1.7,1.9,3.2,3.1,4.6,3.9c1.2,0.9,2.9,1.2,4.4,1.2c1.7,0,3.2-0.3,4.1-1.2
			c1-0.7,1.4-1.7,1.4-3.2c0-1.2-0.2-2.2-1-2.9c-0.7-1-2.2-2.2-4.8-3.6c-3.9-2.7-6.3-4.6-7.3-5.8c-1-1.5-1.4-3.1-1.4-5.1
			c0-2.6,1-4.8,2.9-6.5c1.7-1.7,4.4-2.6,7.2-2.6c1.2,0,2.7,0.2,3.9,0.7c1.2,0.2,2.7,1,3.9,1.7v5.5c-1.5-1.2-2.9-1.9-4.1-2.6
			c-1.2-0.5-2.6-0.7-3.9-0.7c-1.5,0-2.7,0.3-3.9,1.2c-1,0.8-1.5,1.7-1.5,2.9c0,1.7,2.2,3.8,6.3,6.3l0.7,0.5c3.2,1.9,5.3,3.9,6.3,5.3
			c1.2,1.7,1.7,3.6,1.7,5.8c0,2.7-1,4.8-2.9,6.5c-1.9,1.7-4.3,2.7-7.3,2.7c-1.9,0-3.6-0.2-5.1-0.7
			C399.6,939.3,398.2,938.4,396.7,937.1z M310.4,905.5v4.1c-0.5,0-1,0-1.4,0h-4.1v10.9h4.1c0.5,0,1,0,1.4-0.3v5.6l0,0
			c-1.2-1-2.4-1.2-3.9-1.2h-1.7v15.2H300v-34.3h10.1H310.4L310.4,905.5z M283.9,925.1v-4.4c1.9,0,3.4-0.5,4.3-1.2
			c1-0.9,1.7-2.2,1.7-4.1c0-1.9-0.7-3.4-1.7-4.1c-1-1-2.4-1.2-4.3-1.5v-4.4c3.4,0,6,1,8,2.7c2.2,1.7,3.2,4.1,3.2,7.2
			c0,2.9-1,5.3-3.2,7C289.9,924.1,287.2,925.1,283.9,925.1z M283.9,905.5v4.4c-0.3,0-0.5,0-1,0h-5.3v10.9h5.3c0.5,0,0.7,0,1,0v4.4
			h-0.3h-6v14.8h-4.8v-34.3h10.9H283.9L283.9,905.5z M240.6,929.9v-4.6h5.3l-5.3-12v-7.8h1.7l15.2,34.3h-5.1l-4.4-9.9H240.6z
			 M224.1,935.5h0.5v4.4h-0.5h4.8l4.4-9.9h7.2v-4.6h-5.3l5.3-12.3v0.3v-7.8h-1.7l-14.7,33.6V935.5z M203.4,939.8v-34.3h4.8v30h16
			v3.6l-0.2,0.7h0.2H203.4z"/>
	</g>
</g>
</svg>
